%TF.GenerationSoftware,KiCad,Pcbnew,7.0.10*%
%TF.CreationDate,2026-05-05T12:38:51+02:00*%
%TF.ProjectId,TM1638-I2C,544d3136-3338-42d4-9932-432e6b696361,rev?*%
%TF.SameCoordinates,Original*%
%TF.FileFunction,Drillmap*%
%TF.FilePolarity,Positive*%
%FSLAX45Y45*%
G04 Gerber Fmt 4.5, Leading zero omitted, Abs format (unit mm)*
G04 Created by KiCad (PCBNEW 7.0.10) date 2026-05-05 12:38:51*
%MOMM*%
%LPD*%
G01*
G04 APERTURE LIST*
%ADD10C,0.200000*%
G04 APERTURE END LIST*
D10*
X10000000Y-9385900D02*
X11600000Y-9385900D01*
X11600000Y-12600000D01*
X10000000Y-12600000D01*
X10000000Y-9385900D01*
X10250777Y-12921484D02*
X10250777Y-12721484D01*
X10250777Y-12721484D02*
X10298396Y-12721484D01*
X10298396Y-12721484D02*
X10326967Y-12731008D01*
X10326967Y-12731008D02*
X10346015Y-12750055D01*
X10346015Y-12750055D02*
X10355539Y-12769103D01*
X10355539Y-12769103D02*
X10365063Y-12807198D01*
X10365063Y-12807198D02*
X10365063Y-12835769D01*
X10365063Y-12835769D02*
X10355539Y-12873865D01*
X10355539Y-12873865D02*
X10346015Y-12892912D01*
X10346015Y-12892912D02*
X10326967Y-12911960D01*
X10326967Y-12911960D02*
X10298396Y-12921484D01*
X10298396Y-12921484D02*
X10250777Y-12921484D01*
X10450777Y-12921484D02*
X10450777Y-12788150D01*
X10450777Y-12826246D02*
X10460301Y-12807198D01*
X10460301Y-12807198D02*
X10469824Y-12797674D01*
X10469824Y-12797674D02*
X10488872Y-12788150D01*
X10488872Y-12788150D02*
X10507920Y-12788150D01*
X10574586Y-12921484D02*
X10574586Y-12788150D01*
X10574586Y-12721484D02*
X10565063Y-12731008D01*
X10565063Y-12731008D02*
X10574586Y-12740531D01*
X10574586Y-12740531D02*
X10584110Y-12731008D01*
X10584110Y-12731008D02*
X10574586Y-12721484D01*
X10574586Y-12721484D02*
X10574586Y-12740531D01*
X10698396Y-12921484D02*
X10679348Y-12911960D01*
X10679348Y-12911960D02*
X10669824Y-12892912D01*
X10669824Y-12892912D02*
X10669824Y-12721484D01*
X10803158Y-12921484D02*
X10784110Y-12911960D01*
X10784110Y-12911960D02*
X10774586Y-12892912D01*
X10774586Y-12892912D02*
X10774586Y-12721484D01*
X11031729Y-12921484D02*
X11031729Y-12721484D01*
X11031729Y-12721484D02*
X11098396Y-12864341D01*
X11098396Y-12864341D02*
X11165063Y-12721484D01*
X11165063Y-12721484D02*
X11165063Y-12921484D01*
X11346015Y-12921484D02*
X11346015Y-12816722D01*
X11346015Y-12816722D02*
X11336491Y-12797674D01*
X11336491Y-12797674D02*
X11317443Y-12788150D01*
X11317443Y-12788150D02*
X11279348Y-12788150D01*
X11279348Y-12788150D02*
X11260301Y-12797674D01*
X11346015Y-12911960D02*
X11326967Y-12921484D01*
X11326967Y-12921484D02*
X11279348Y-12921484D01*
X11279348Y-12921484D02*
X11260301Y-12911960D01*
X11260301Y-12911960D02*
X11250777Y-12892912D01*
X11250777Y-12892912D02*
X11250777Y-12873865D01*
X11250777Y-12873865D02*
X11260301Y-12854817D01*
X11260301Y-12854817D02*
X11279348Y-12845293D01*
X11279348Y-12845293D02*
X11326967Y-12845293D01*
X11326967Y-12845293D02*
X11346015Y-12835769D01*
X11441253Y-12788150D02*
X11441253Y-12988150D01*
X11441253Y-12797674D02*
X11460301Y-12788150D01*
X11460301Y-12788150D02*
X11498396Y-12788150D01*
X11498396Y-12788150D02*
X11517443Y-12797674D01*
X11517443Y-12797674D02*
X11526967Y-12807198D01*
X11526967Y-12807198D02*
X11536491Y-12826246D01*
X11536491Y-12826246D02*
X11536491Y-12883388D01*
X11536491Y-12883388D02*
X11526967Y-12902436D01*
X11526967Y-12902436D02*
X11517443Y-12911960D01*
X11517443Y-12911960D02*
X11498396Y-12921484D01*
X11498396Y-12921484D02*
X11460301Y-12921484D01*
X11460301Y-12921484D02*
X11441253Y-12911960D01*
X11622205Y-12902436D02*
X11631729Y-12911960D01*
X11631729Y-12911960D02*
X11622205Y-12921484D01*
X11622205Y-12921484D02*
X11612682Y-12911960D01*
X11612682Y-12911960D02*
X11622205Y-12902436D01*
X11622205Y-12902436D02*
X11622205Y-12921484D01*
X11622205Y-12797674D02*
X11631729Y-12807198D01*
X11631729Y-12807198D02*
X11622205Y-12816722D01*
X11622205Y-12816722D02*
X11612682Y-12807198D01*
X11612682Y-12807198D02*
X11622205Y-12797674D01*
X11622205Y-12797674D02*
X11622205Y-12816722D01*
M02*
