%TF.GenerationSoftware,KiCad,Pcbnew,7.0.10*%
%TF.CreationDate,2026-05-05T12:38:48+02:00*%
%TF.ProjectId,TM1638-I2C,544d3136-3338-42d4-9932-432e6b696361,rev?*%
%TF.SameCoordinates,Original*%
%TF.FileFunction,Copper,L2,Bot*%
%TF.FilePolarity,Positive*%
%FSLAX46Y46*%
G04 Gerber Fmt 4.6, Leading zero omitted, Abs format (unit mm)*
G04 Created by KiCad (PCBNEW 7.0.10) date 2026-05-05 12:38:48*
%MOMM*%
%LPD*%
G01*
G04 APERTURE LIST*
%TA.AperFunction,ComponentPad*%
%ADD10R,1.700000X1.700000*%
%TD*%
%TA.AperFunction,ComponentPad*%
%ADD11O,1.700000X1.700000*%
%TD*%
%TA.AperFunction,ComponentPad*%
%ADD12R,1.600000X1.600000*%
%TD*%
%TA.AperFunction,ComponentPad*%
%ADD13O,1.600000X1.600000*%
%TD*%
%TA.AperFunction,Conductor*%
%ADD14C,1.000000*%
%TD*%
G04 APERTURE END LIST*
D10*
%TO.P,J2,1,Pin_1*%
%TO.N,GND*%
X105535000Y-100545000D03*
D11*
%TO.P,J2,2,Pin_2*%
%TO.N,+5V*%
X108075000Y-100545000D03*
%TO.P,J2,3,Pin_3*%
%TO.N,unconnected-(J2-Pin_3-Pad3)*%
X105535000Y-103085000D03*
%TO.P,J2,4,Pin_4*%
%TO.N,unconnected-(J2-Pin_4-Pad4)*%
X108075000Y-103085000D03*
%TO.P,J2,5,Pin_5*%
%TO.N,SDA*%
X105535000Y-105625000D03*
%TO.P,J2,6,Pin_6*%
%TO.N,SCL*%
X108075000Y-105625000D03*
%TD*%
D10*
%TO.P,J1,1,Pin_1*%
%TO.N,+5V*%
X113922062Y-113792000D03*
D11*
%TO.P,J1,2,Pin_2*%
%TO.N,GND*%
X113922062Y-116332000D03*
%TO.P,J1,3,Pin_3*%
%TO.N,STB*%
X113922062Y-118872000D03*
%TO.P,J1,4,Pin_4*%
%TO.N,CLK*%
X113922062Y-121412000D03*
%TO.P,J1,5,Pin_5*%
%TO.N,DIO*%
X113922062Y-123952000D03*
%TD*%
D12*
%TO.P,U1,1,~{RESET}/PB5*%
%TO.N,unconnected-(U1-~{RESET}{slash}PB5-Pad1)*%
X109220000Y-123952000D03*
D13*
%TO.P,U1,2,XTAL1/PB3*%
%TO.N,DIO*%
X109220000Y-121412000D03*
%TO.P,U1,3,XTAL2/PB4*%
%TO.N,CLK*%
X109220000Y-118872000D03*
%TO.P,U1,4,GND*%
%TO.N,GND*%
X109220000Y-116332000D03*
%TO.P,U1,5,AREF/PB0*%
%TO.N,SDA*%
X101600000Y-116332000D03*
%TO.P,U1,6,PB1*%
%TO.N,STB*%
X101600000Y-118872000D03*
%TO.P,U1,7,PB2*%
%TO.N,SCL*%
X101600000Y-121412000D03*
%TO.P,U1,8,VCC*%
%TO.N,+5V*%
X101600000Y-123952000D03*
%TD*%
D14*
%TO.N,GND*%
X105535000Y-100545000D02*
X107085000Y-98995000D01*
X115124143Y-116332000D02*
X113922062Y-116332000D01*
X115472062Y-115984081D02*
X115124143Y-116332000D01*
X107085000Y-98995000D02*
X108820000Y-98995000D01*
X108820000Y-98995000D02*
X115472062Y-105647062D01*
X109220000Y-116332000D02*
X113922062Y-116332000D01*
X115472062Y-105647062D02*
X115472062Y-115984081D01*
%TO.N,+5V*%
X109638679Y-113792000D02*
X113922062Y-113792000D01*
X107720000Y-115710679D02*
X109638679Y-113792000D01*
X113922062Y-106392062D02*
X113922062Y-113792000D01*
X107720000Y-117832000D02*
X107720000Y-115710679D01*
X101600000Y-123952000D02*
X107720000Y-117832000D01*
X108075000Y-100545000D02*
X113922062Y-106392062D01*
%TO.N,SDA*%
X105535000Y-112397000D02*
X101600000Y-116332000D01*
X105535000Y-105625000D02*
X105535000Y-112397000D01*
%TO.N,SCL*%
X103100000Y-116550000D02*
X108075000Y-111575000D01*
X108075000Y-111575000D02*
X108075000Y-105625000D01*
X103100000Y-119912000D02*
X103100000Y-116550000D01*
X101600000Y-121412000D02*
X103100000Y-119912000D01*
%TO.N,DIO*%
X111382062Y-121412000D02*
X109220000Y-121412000D01*
X113922062Y-123952000D02*
X111382062Y-121412000D01*
%TO.N,CLK*%
X113922062Y-121412000D02*
X111382062Y-118872000D01*
X111382062Y-118872000D02*
X109220000Y-118872000D01*
%TD*%
%TA.AperFunction,Conductor*%
%TO.N,GND*%
G36*
X115872656Y-93879185D02*
G01*
X115918411Y-93931989D01*
X115929615Y-93983016D01*
X115997684Y-111516399D01*
X115999499Y-111983943D01*
X115999500Y-111984424D01*
X115999500Y-125838242D01*
X115979815Y-125905281D01*
X115927011Y-125951036D01*
X115875671Y-125962242D01*
X100199689Y-125983829D01*
X100132622Y-125964237D01*
X100086795Y-125911496D01*
X100075519Y-125860313D01*
X100069095Y-124205498D01*
X100088519Y-124138385D01*
X100141145Y-124092425D01*
X100210264Y-124082214D01*
X100273932Y-124110992D01*
X100311935Y-124169623D01*
X100312850Y-124173493D01*
X100312964Y-124173463D01*
X100373258Y-124398488D01*
X100373261Y-124398497D01*
X100469431Y-124604732D01*
X100469432Y-124604734D01*
X100599954Y-124791141D01*
X100760858Y-124952045D01*
X100760861Y-124952047D01*
X100947266Y-125082568D01*
X101153504Y-125178739D01*
X101373308Y-125237635D01*
X101535230Y-125251801D01*
X101599998Y-125257468D01*
X101600000Y-125257468D01*
X101600002Y-125257468D01*
X101656807Y-125252498D01*
X101826692Y-125237635D01*
X102046496Y-125178739D01*
X102252734Y-125082568D01*
X102439139Y-124952047D01*
X102600047Y-124791139D01*
X102730568Y-124604734D01*
X102826739Y-124398496D01*
X102885635Y-124178692D01*
X102891040Y-124116905D01*
X102916490Y-124051839D01*
X102926878Y-124040040D01*
X107768521Y-119198397D01*
X107829842Y-119164914D01*
X107899534Y-119169898D01*
X107955467Y-119211770D01*
X107975975Y-119253986D01*
X107993259Y-119318490D01*
X107993261Y-119318497D01*
X108089431Y-119524732D01*
X108089432Y-119524734D01*
X108219954Y-119711141D01*
X108380858Y-119872045D01*
X108380861Y-119872047D01*
X108567266Y-120002568D01*
X108625275Y-120029618D01*
X108677714Y-120075791D01*
X108696866Y-120142984D01*
X108676650Y-120209865D01*
X108625275Y-120254382D01*
X108567267Y-120281431D01*
X108567265Y-120281432D01*
X108380858Y-120411954D01*
X108219954Y-120572858D01*
X108089432Y-120759265D01*
X108089431Y-120759267D01*
X107993261Y-120965502D01*
X107993258Y-120965511D01*
X107934366Y-121185302D01*
X107934364Y-121185313D01*
X107914532Y-121411998D01*
X107914532Y-121412001D01*
X107934364Y-121638686D01*
X107934366Y-121638697D01*
X107993258Y-121858488D01*
X107993261Y-121858497D01*
X108089431Y-122064732D01*
X108089432Y-122064734D01*
X108219954Y-122251141D01*
X108380858Y-122412045D01*
X108405462Y-122429273D01*
X108449087Y-122483849D01*
X108456281Y-122553348D01*
X108424758Y-122615703D01*
X108364529Y-122651117D01*
X108347593Y-122654138D01*
X108312516Y-122657908D01*
X108177671Y-122708202D01*
X108177664Y-122708206D01*
X108062455Y-122794452D01*
X108062452Y-122794455D01*
X107976206Y-122909664D01*
X107976202Y-122909671D01*
X107925908Y-123044517D01*
X107919501Y-123104116D01*
X107919501Y-123104123D01*
X107919500Y-123104135D01*
X107919500Y-124799870D01*
X107919501Y-124799876D01*
X107925908Y-124859483D01*
X107976202Y-124994328D01*
X107976206Y-124994335D01*
X108062452Y-125109544D01*
X108062455Y-125109547D01*
X108177664Y-125195793D01*
X108177671Y-125195797D01*
X108312517Y-125246091D01*
X108312516Y-125246091D01*
X108319444Y-125246835D01*
X108372127Y-125252500D01*
X110067872Y-125252499D01*
X110127483Y-125246091D01*
X110262331Y-125195796D01*
X110377546Y-125109546D01*
X110463796Y-124994331D01*
X110514091Y-124859483D01*
X110520500Y-124799873D01*
X110520499Y-123104128D01*
X110514091Y-123044517D01*
X110479567Y-122951954D01*
X110463797Y-122909671D01*
X110463793Y-122909664D01*
X110377547Y-122794455D01*
X110377544Y-122794452D01*
X110262335Y-122708206D01*
X110262328Y-122708202D01*
X110127488Y-122657910D01*
X110124387Y-122657178D01*
X110122228Y-122655949D01*
X110120215Y-122655198D01*
X110120336Y-122654871D01*
X110063670Y-122622606D01*
X110031283Y-122560696D01*
X110037507Y-122491104D01*
X110080368Y-122435925D01*
X110146257Y-122412678D01*
X110152899Y-122412500D01*
X110916279Y-122412500D01*
X110983318Y-122432185D01*
X111003960Y-122448819D01*
X112540170Y-123985029D01*
X112573655Y-124046352D01*
X112576017Y-124061901D01*
X112586998Y-124187403D01*
X112587000Y-124187413D01*
X112648156Y-124415655D01*
X112648158Y-124415659D01*
X112648159Y-124415663D01*
X112736324Y-124604732D01*
X112748027Y-124629830D01*
X112748029Y-124629834D01*
X112856343Y-124784521D01*
X112883567Y-124823401D01*
X113050661Y-124990495D01*
X113147446Y-125058265D01*
X113244227Y-125126032D01*
X113244229Y-125126033D01*
X113244232Y-125126035D01*
X113458399Y-125225903D01*
X113686654Y-125287063D01*
X113874980Y-125303539D01*
X113922061Y-125307659D01*
X113922062Y-125307659D01*
X113922063Y-125307659D01*
X113961296Y-125304226D01*
X114157470Y-125287063D01*
X114385725Y-125225903D01*
X114599892Y-125126035D01*
X114793463Y-124990495D01*
X114960557Y-124823401D01*
X115096097Y-124629830D01*
X115195965Y-124415663D01*
X115257125Y-124187408D01*
X115277721Y-123952000D01*
X115257125Y-123716592D01*
X115195965Y-123488337D01*
X115096097Y-123274171D01*
X114977033Y-123104128D01*
X114960556Y-123080597D01*
X114793464Y-122913506D01*
X114793458Y-122913501D01*
X114607904Y-122783575D01*
X114564279Y-122728998D01*
X114557085Y-122659500D01*
X114588608Y-122597145D01*
X114607904Y-122580425D01*
X114735467Y-122491104D01*
X114793463Y-122450495D01*
X114960557Y-122283401D01*
X115096097Y-122089830D01*
X115195965Y-121875663D01*
X115257125Y-121647408D01*
X115277721Y-121412000D01*
X115257125Y-121176592D01*
X115195965Y-120948337D01*
X115096097Y-120734171D01*
X114960557Y-120540599D01*
X114960556Y-120540597D01*
X114793464Y-120373506D01*
X114793458Y-120373501D01*
X114607904Y-120243575D01*
X114564279Y-120188998D01*
X114557085Y-120119500D01*
X114588608Y-120057145D01*
X114607904Y-120040425D01*
X114630088Y-120024891D01*
X114793463Y-119910495D01*
X114960557Y-119743401D01*
X115096097Y-119549830D01*
X115195965Y-119335663D01*
X115257125Y-119107408D01*
X115277721Y-118872000D01*
X115277625Y-118870908D01*
X115257888Y-118645312D01*
X115257125Y-118636592D01*
X115195965Y-118408337D01*
X115096097Y-118194171D01*
X115008855Y-118069575D01*
X114960556Y-118000597D01*
X114793464Y-117833506D01*
X114793463Y-117833505D01*
X114607467Y-117703269D01*
X114563843Y-117648692D01*
X114556650Y-117579193D01*
X114588172Y-117516839D01*
X114607467Y-117500119D01*
X114793144Y-117370105D01*
X114960167Y-117203082D01*
X115095662Y-117009578D01*
X115195491Y-116795492D01*
X115195494Y-116795486D01*
X115252698Y-116582000D01*
X114355748Y-116582000D01*
X114381555Y-116541844D01*
X114422062Y-116403889D01*
X114422062Y-116260111D01*
X114381555Y-116122156D01*
X114355748Y-116082000D01*
X115252698Y-116082000D01*
X115252697Y-116081999D01*
X115195494Y-115868513D01*
X115195491Y-115868507D01*
X115095662Y-115654422D01*
X115095661Y-115654420D01*
X114960175Y-115460926D01*
X114960170Y-115460920D01*
X114838115Y-115338865D01*
X114804630Y-115277542D01*
X114809614Y-115207850D01*
X114851486Y-115151917D01*
X114882462Y-115135002D01*
X114971909Y-115101641D01*
X115014388Y-115085798D01*
X115014388Y-115085797D01*
X115014393Y-115085796D01*
X115129608Y-114999546D01*
X115215858Y-114884331D01*
X115266153Y-114749483D01*
X115272562Y-114689873D01*
X115272561Y-112894128D01*
X115266153Y-112834517D01*
X115262656Y-112825142D01*
X115215859Y-112699671D01*
X115215855Y-112699664D01*
X115129609Y-112584455D01*
X115129606Y-112584452D01*
X115014397Y-112498206D01*
X115014394Y-112498205D01*
X115014393Y-112498204D01*
X115003223Y-112494038D01*
X114947293Y-112452166D01*
X114922878Y-112386701D01*
X114922562Y-112377858D01*
X114922562Y-106406299D01*
X114922602Y-106403157D01*
X114924818Y-106315704D01*
X114924817Y-106315703D01*
X114924818Y-106315698D01*
X114914407Y-106257616D01*
X114913104Y-106248322D01*
X114907136Y-106189624D01*
X114905458Y-106184276D01*
X114898029Y-106160598D01*
X114894286Y-106145349D01*
X114888920Y-106115410D01*
X114878236Y-106088664D01*
X114867036Y-106060624D01*
X114863884Y-106051771D01*
X114846221Y-105995474D01*
X114846220Y-105995473D01*
X114846219Y-105995468D01*
X114831458Y-105968876D01*
X114824721Y-105954691D01*
X114813440Y-105926447D01*
X114813437Y-105926442D01*
X114780980Y-105877193D01*
X114776098Y-105869136D01*
X114771256Y-105860413D01*
X114747471Y-105817560D01*
X114727650Y-105794472D01*
X114718206Y-105781947D01*
X114701464Y-105756543D01*
X114659754Y-105714833D01*
X114653362Y-105707937D01*
X114614928Y-105663167D01*
X114590866Y-105644541D01*
X114579088Y-105634167D01*
X109456890Y-100511969D01*
X109423405Y-100450646D01*
X109421043Y-100435095D01*
X109410063Y-100309592D01*
X109348903Y-100081337D01*
X109249035Y-99867171D01*
X109113495Y-99673599D01*
X109113494Y-99673597D01*
X108946402Y-99506506D01*
X108946395Y-99506501D01*
X108752834Y-99370967D01*
X108752830Y-99370965D01*
X108681727Y-99337809D01*
X108538663Y-99271097D01*
X108538659Y-99271096D01*
X108538655Y-99271094D01*
X108310413Y-99209938D01*
X108310403Y-99209936D01*
X108075001Y-99189341D01*
X108074999Y-99189341D01*
X107839596Y-99209936D01*
X107839586Y-99209938D01*
X107611344Y-99271094D01*
X107611335Y-99271098D01*
X107397171Y-99370964D01*
X107397169Y-99370965D01*
X107203600Y-99506503D01*
X107081284Y-99628819D01*
X107019961Y-99662303D01*
X106950269Y-99657319D01*
X106894336Y-99615447D01*
X106877421Y-99584470D01*
X106828354Y-99452913D01*
X106828350Y-99452906D01*
X106742190Y-99337812D01*
X106742187Y-99337809D01*
X106627093Y-99251649D01*
X106627086Y-99251645D01*
X106492379Y-99201403D01*
X106492372Y-99201401D01*
X106432844Y-99195000D01*
X105785000Y-99195000D01*
X105785000Y-100109498D01*
X105677315Y-100060320D01*
X105570763Y-100045000D01*
X105499237Y-100045000D01*
X105392685Y-100060320D01*
X105285000Y-100109498D01*
X105285000Y-99195000D01*
X104637155Y-99195000D01*
X104577627Y-99201401D01*
X104577620Y-99201403D01*
X104442913Y-99251645D01*
X104442906Y-99251649D01*
X104327812Y-99337809D01*
X104327809Y-99337812D01*
X104241649Y-99452906D01*
X104241645Y-99452913D01*
X104191403Y-99587620D01*
X104191401Y-99587627D01*
X104185000Y-99647155D01*
X104185000Y-100295000D01*
X105101314Y-100295000D01*
X105075507Y-100335156D01*
X105035000Y-100473111D01*
X105035000Y-100616889D01*
X105075507Y-100754844D01*
X105101314Y-100795000D01*
X104185000Y-100795000D01*
X104185000Y-101442844D01*
X104191401Y-101502372D01*
X104191403Y-101502379D01*
X104241645Y-101637086D01*
X104241649Y-101637093D01*
X104327809Y-101752187D01*
X104327812Y-101752190D01*
X104442906Y-101838350D01*
X104442913Y-101838354D01*
X104574470Y-101887421D01*
X104630403Y-101929292D01*
X104654821Y-101994756D01*
X104639970Y-102063029D01*
X104618819Y-102091284D01*
X104496503Y-102213600D01*
X104360965Y-102407169D01*
X104360964Y-102407171D01*
X104261098Y-102621335D01*
X104261094Y-102621344D01*
X104199938Y-102849586D01*
X104199936Y-102849596D01*
X104179341Y-103084999D01*
X104179341Y-103085000D01*
X104199936Y-103320403D01*
X104199938Y-103320413D01*
X104261094Y-103548655D01*
X104261096Y-103548659D01*
X104261097Y-103548663D01*
X104265000Y-103557032D01*
X104360965Y-103762830D01*
X104360967Y-103762834D01*
X104469281Y-103917521D01*
X104496501Y-103956396D01*
X104496506Y-103956402D01*
X104663597Y-104123493D01*
X104663603Y-104123498D01*
X104849158Y-104253425D01*
X104892783Y-104308002D01*
X104899977Y-104377500D01*
X104868454Y-104439855D01*
X104849158Y-104456575D01*
X104663597Y-104586505D01*
X104496505Y-104753597D01*
X104360965Y-104947169D01*
X104360964Y-104947171D01*
X104261098Y-105161335D01*
X104261094Y-105161344D01*
X104199938Y-105389586D01*
X104199936Y-105389596D01*
X104179341Y-105624999D01*
X104179341Y-105625000D01*
X104199936Y-105860403D01*
X104199938Y-105860413D01*
X104261094Y-106088655D01*
X104261096Y-106088659D01*
X104261097Y-106088663D01*
X104308176Y-106189624D01*
X104360965Y-106302830D01*
X104360967Y-106302834D01*
X104369975Y-106315698D01*
X104496501Y-106496396D01*
X104496506Y-106496402D01*
X104498181Y-106498077D01*
X104498682Y-106498995D01*
X104499982Y-106500544D01*
X104499670Y-106500805D01*
X104531666Y-106559400D01*
X104534500Y-106585758D01*
X104534500Y-111931216D01*
X104514815Y-111998255D01*
X104498181Y-112018897D01*
X101511966Y-115005111D01*
X101450643Y-115038596D01*
X101435095Y-115040958D01*
X101373307Y-115046365D01*
X101153511Y-115105258D01*
X101153502Y-115105261D01*
X100947267Y-115201431D01*
X100947265Y-115201432D01*
X100760858Y-115331954D01*
X100599954Y-115492858D01*
X100469432Y-115679265D01*
X100469431Y-115679267D01*
X100373261Y-115885502D01*
X100373258Y-115885511D01*
X100314366Y-116105302D01*
X100314364Y-116105313D01*
X100294532Y-116331998D01*
X100294532Y-116332001D01*
X100314364Y-116558686D01*
X100314366Y-116558697D01*
X100373258Y-116778488D01*
X100373261Y-116778497D01*
X100469431Y-116984732D01*
X100469432Y-116984734D01*
X100599954Y-117171141D01*
X100760858Y-117332045D01*
X100760861Y-117332047D01*
X100947266Y-117462568D01*
X101004681Y-117489341D01*
X101005275Y-117489618D01*
X101057714Y-117535791D01*
X101076866Y-117602984D01*
X101056650Y-117669865D01*
X101005275Y-117714382D01*
X100947267Y-117741431D01*
X100947265Y-117741432D01*
X100760858Y-117871954D01*
X100599954Y-118032858D01*
X100469432Y-118219265D01*
X100469431Y-118219267D01*
X100373261Y-118425502D01*
X100373258Y-118425511D01*
X100314366Y-118645302D01*
X100314364Y-118645312D01*
X100295819Y-118857284D01*
X100291882Y-118867347D01*
X100296026Y-118889085D01*
X100314364Y-119098687D01*
X100314366Y-119098697D01*
X100373258Y-119318488D01*
X100373261Y-119318497D01*
X100469431Y-119524732D01*
X100469432Y-119524734D01*
X100599954Y-119711141D01*
X100760858Y-119872045D01*
X100760861Y-119872047D01*
X100947266Y-120002568D01*
X101005275Y-120029618D01*
X101057714Y-120075791D01*
X101076866Y-120142984D01*
X101056650Y-120209865D01*
X101005275Y-120254382D01*
X100947267Y-120281431D01*
X100947265Y-120281432D01*
X100760858Y-120411954D01*
X100599954Y-120572858D01*
X100469432Y-120759265D01*
X100469431Y-120759267D01*
X100373261Y-120965502D01*
X100373258Y-120965511D01*
X100314366Y-121185302D01*
X100314364Y-121185312D01*
X100305261Y-121289364D01*
X100279808Y-121354432D01*
X100223217Y-121395411D01*
X100153455Y-121399289D01*
X100092671Y-121364835D01*
X100060164Y-121302988D01*
X100057734Y-121279037D01*
X100057370Y-121185302D01*
X100048499Y-118900371D01*
X100054787Y-118878643D01*
X100050722Y-118870908D01*
X100048292Y-118846957D01*
X100047509Y-118645312D01*
X100000501Y-106536665D01*
X100000500Y-106536184D01*
X100000500Y-93983500D01*
X100020185Y-93916461D01*
X100072989Y-93870706D01*
X100124500Y-93859500D01*
X115805617Y-93859500D01*
X115872656Y-93879185D01*
G37*
%TD.AperFunction*%
%TA.AperFunction,Conductor*%
G36*
X112574960Y-114812185D02*
G01*
X112620715Y-114864989D01*
X112624092Y-114873140D01*
X112628266Y-114884331D01*
X112628267Y-114884332D01*
X112628268Y-114884335D01*
X112714514Y-114999544D01*
X112714517Y-114999547D01*
X112829726Y-115085793D01*
X112829733Y-115085797D01*
X112878646Y-115104040D01*
X112961660Y-115135002D01*
X113017593Y-115176873D01*
X113042011Y-115242337D01*
X113027160Y-115310610D01*
X113006009Y-115338865D01*
X112883948Y-115460926D01*
X112748462Y-115654420D01*
X112748461Y-115654422D01*
X112648632Y-115868507D01*
X112648629Y-115868513D01*
X112591426Y-116081999D01*
X112591426Y-116082000D01*
X113488376Y-116082000D01*
X113462569Y-116122156D01*
X113422062Y-116260111D01*
X113422062Y-116403889D01*
X113462569Y-116541844D01*
X113488376Y-116582000D01*
X112591426Y-116582000D01*
X112648629Y-116795486D01*
X112648632Y-116795492D01*
X112748461Y-117009578D01*
X112883956Y-117203082D01*
X113050979Y-117370105D01*
X113236657Y-117500119D01*
X113280281Y-117554696D01*
X113287474Y-117624195D01*
X113255952Y-117686549D01*
X113236657Y-117703269D01*
X113050656Y-117833508D01*
X112883567Y-118000597D01*
X112748027Y-118194169D01*
X112748026Y-118194171D01*
X112648160Y-118408335D01*
X112648157Y-118408342D01*
X112637213Y-118449187D01*
X112600848Y-118508847D01*
X112538001Y-118539376D01*
X112468625Y-118531081D01*
X112429757Y-118504774D01*
X112099628Y-118174645D01*
X112097435Y-118172396D01*
X112037126Y-118108951D01*
X112037122Y-118108948D01*
X112037121Y-118108947D01*
X111988702Y-118075246D01*
X111981182Y-118069575D01*
X111935475Y-118032305D01*
X111935468Y-118032301D01*
X111908503Y-118018216D01*
X111895088Y-118010089D01*
X111870111Y-117992705D01*
X111870108Y-117992703D01*
X111870107Y-117992703D01*
X111870103Y-117992701D01*
X111815907Y-117969443D01*
X111807398Y-117965402D01*
X111755119Y-117938094D01*
X111755108Y-117938090D01*
X111725868Y-117929723D01*
X111711083Y-117924459D01*
X111683120Y-117912459D01*
X111625335Y-117900583D01*
X111616189Y-117898338D01*
X111559485Y-117882113D01*
X111535761Y-117880306D01*
X111529134Y-117879801D01*
X111513595Y-117877622D01*
X111483804Y-117871500D01*
X111483803Y-117871500D01*
X111424821Y-117871500D01*
X111415406Y-117871142D01*
X111412705Y-117870936D01*
X111356586Y-117866662D01*
X111326411Y-117870506D01*
X111310744Y-117871500D01*
X110097588Y-117871500D01*
X110030549Y-117851815D01*
X110026465Y-117849075D01*
X109872734Y-117741432D01*
X109872732Y-117741431D01*
X109814725Y-117714382D01*
X109814132Y-117714105D01*
X109761694Y-117667934D01*
X109742542Y-117600740D01*
X109762758Y-117533859D01*
X109814134Y-117489341D01*
X109872484Y-117462132D01*
X110058820Y-117331657D01*
X110219657Y-117170820D01*
X110350134Y-116984482D01*
X110446265Y-116778326D01*
X110446269Y-116778317D01*
X110498872Y-116582000D01*
X109535686Y-116582000D01*
X109547641Y-116570045D01*
X109605165Y-116457148D01*
X109624986Y-116332000D01*
X109605165Y-116206852D01*
X109547641Y-116093955D01*
X109535686Y-116082000D01*
X110498872Y-116082000D01*
X110498872Y-116081999D01*
X110446269Y-115885682D01*
X110446265Y-115885673D01*
X110350134Y-115679517D01*
X110219657Y-115493179D01*
X110058820Y-115332342D01*
X109872481Y-115201865D01*
X109867797Y-115199161D01*
X109869054Y-115196983D01*
X109824543Y-115157799D01*
X109805384Y-115090608D01*
X109825593Y-115023725D01*
X109841686Y-115003912D01*
X110016782Y-114828816D01*
X110078104Y-114795334D01*
X110104461Y-114792500D01*
X112507921Y-114792500D01*
X112574960Y-114812185D01*
G37*
%TD.AperFunction*%
%TD*%
M02*
