%TF.GenerationSoftware,KiCad,Pcbnew,7.0.10*%
%TF.CreationDate,2026-05-05T12:38:48+02:00*%
%TF.ProjectId,TM1638-I2C,544d3136-3338-42d4-9932-432e6b696361,rev?*%
%TF.SameCoordinates,Original*%
%TF.FileFunction,Copper,L1,Top*%
%TF.FilePolarity,Positive*%
%FSLAX46Y46*%
G04 Gerber Fmt 4.6, Leading zero omitted, Abs format (unit mm)*
G04 Created by KiCad (PCBNEW 7.0.10) date 2026-05-05 12:38:48*
%MOMM*%
%LPD*%
G01*
G04 APERTURE LIST*
%TA.AperFunction,ComponentPad*%
%ADD10R,1.700000X1.700000*%
%TD*%
%TA.AperFunction,ComponentPad*%
%ADD11O,1.700000X1.700000*%
%TD*%
%TA.AperFunction,ComponentPad*%
%ADD12R,1.600000X1.600000*%
%TD*%
%TA.AperFunction,ComponentPad*%
%ADD13O,1.600000X1.600000*%
%TD*%
%TA.AperFunction,Conductor*%
%ADD14C,1.000000*%
%TD*%
G04 APERTURE END LIST*
D10*
%TO.P,J2,1,Pin_1*%
%TO.N,GND*%
X105535000Y-100545000D03*
D11*
%TO.P,J2,2,Pin_2*%
%TO.N,+5V*%
X108075000Y-100545000D03*
%TO.P,J2,3,Pin_3*%
%TO.N,unconnected-(J2-Pin_3-Pad3)*%
X105535000Y-103085000D03*
%TO.P,J2,4,Pin_4*%
%TO.N,unconnected-(J2-Pin_4-Pad4)*%
X108075000Y-103085000D03*
%TO.P,J2,5,Pin_5*%
%TO.N,SDA*%
X105535000Y-105625000D03*
%TO.P,J2,6,Pin_6*%
%TO.N,SCL*%
X108075000Y-105625000D03*
%TD*%
D10*
%TO.P,J1,1,Pin_1*%
%TO.N,+5V*%
X113922062Y-113792000D03*
D11*
%TO.P,J1,2,Pin_2*%
%TO.N,GND*%
X113922062Y-116332000D03*
%TO.P,J1,3,Pin_3*%
%TO.N,STB*%
X113922062Y-118872000D03*
%TO.P,J1,4,Pin_4*%
%TO.N,CLK*%
X113922062Y-121412000D03*
%TO.P,J1,5,Pin_5*%
%TO.N,DIO*%
X113922062Y-123952000D03*
%TD*%
D12*
%TO.P,U1,1,~{RESET}/PB5*%
%TO.N,unconnected-(U1-~{RESET}{slash}PB5-Pad1)*%
X109220000Y-123952000D03*
D13*
%TO.P,U1,2,XTAL1/PB3*%
%TO.N,DIO*%
X109220000Y-121412000D03*
%TO.P,U1,3,XTAL2/PB4*%
%TO.N,CLK*%
X109220000Y-118872000D03*
%TO.P,U1,4,GND*%
%TO.N,GND*%
X109220000Y-116332000D03*
%TO.P,U1,5,AREF/PB0*%
%TO.N,SDA*%
X101600000Y-116332000D03*
%TO.P,U1,6,PB1*%
%TO.N,STB*%
X101600000Y-118872000D03*
%TO.P,U1,7,PB2*%
%TO.N,SCL*%
X101600000Y-121412000D03*
%TO.P,U1,8,VCC*%
%TO.N,+5V*%
X101600000Y-123952000D03*
%TD*%
D14*
%TO.N,STB*%
X109350062Y-114300000D02*
X113922062Y-118872000D01*
X101600000Y-118872000D02*
X106172000Y-114300000D01*
X106172000Y-114300000D02*
X109350062Y-114300000D01*
%TD*%
%TA.AperFunction,Conductor*%
%TO.N,GND*%
G36*
X115872656Y-93879185D02*
G01*
X115918411Y-93931989D01*
X115929615Y-93983016D01*
X115978844Y-106663493D01*
X115999499Y-111983943D01*
X115999500Y-111984424D01*
X115999500Y-125838242D01*
X115979815Y-125905281D01*
X115927011Y-125951036D01*
X115875671Y-125962242D01*
X100199689Y-125983829D01*
X100132622Y-125964237D01*
X100086795Y-125911496D01*
X100075519Y-125860313D01*
X100069095Y-124205498D01*
X100088519Y-124138385D01*
X100141145Y-124092425D01*
X100210264Y-124082214D01*
X100273932Y-124110992D01*
X100311935Y-124169623D01*
X100312850Y-124173493D01*
X100312964Y-124173463D01*
X100373258Y-124398488D01*
X100373261Y-124398497D01*
X100469431Y-124604732D01*
X100469432Y-124604734D01*
X100599954Y-124791141D01*
X100760858Y-124952045D01*
X100760861Y-124952047D01*
X100947266Y-125082568D01*
X101153504Y-125178739D01*
X101373308Y-125237635D01*
X101535230Y-125251801D01*
X101599998Y-125257468D01*
X101600000Y-125257468D01*
X101600002Y-125257468D01*
X101656807Y-125252498D01*
X101826692Y-125237635D01*
X102046496Y-125178739D01*
X102252734Y-125082568D01*
X102439139Y-124952047D01*
X102600047Y-124791139D01*
X102730568Y-124604734D01*
X102826739Y-124398496D01*
X102885635Y-124178692D01*
X102905468Y-123952000D01*
X102885635Y-123725308D01*
X102826739Y-123505504D01*
X102730568Y-123299266D01*
X102600047Y-123112861D01*
X102600045Y-123112858D01*
X102439141Y-122951954D01*
X102252734Y-122821432D01*
X102252728Y-122821429D01*
X102194882Y-122794455D01*
X102194724Y-122794381D01*
X102142285Y-122748210D01*
X102123133Y-122681017D01*
X102143348Y-122614135D01*
X102194725Y-122569618D01*
X102252734Y-122542568D01*
X102439139Y-122412047D01*
X102600047Y-122251139D01*
X102730568Y-122064734D01*
X102826739Y-121858496D01*
X102885635Y-121638692D01*
X102905468Y-121412000D01*
X102885635Y-121185308D01*
X102826739Y-120965504D01*
X102730568Y-120759266D01*
X102600047Y-120572861D01*
X102600045Y-120572858D01*
X102439141Y-120411954D01*
X102252734Y-120281432D01*
X102252728Y-120281429D01*
X102194725Y-120254382D01*
X102142285Y-120208210D01*
X102123133Y-120141017D01*
X102143348Y-120074135D01*
X102194725Y-120029618D01*
X102252734Y-120002568D01*
X102439139Y-119872047D01*
X102600047Y-119711139D01*
X102730568Y-119524734D01*
X102826739Y-119318496D01*
X102885635Y-119098692D01*
X102891039Y-119036906D01*
X102916490Y-118971840D01*
X102926878Y-118960041D01*
X106550102Y-115336819D01*
X106611425Y-115303334D01*
X106637783Y-115300500D01*
X108117056Y-115300500D01*
X108184095Y-115320185D01*
X108229850Y-115372989D01*
X108239794Y-115442147D01*
X108218631Y-115495624D01*
X108089865Y-115679517D01*
X107993734Y-115885673D01*
X107993730Y-115885682D01*
X107941127Y-116081999D01*
X107941128Y-116082000D01*
X108904314Y-116082000D01*
X108892359Y-116093955D01*
X108834835Y-116206852D01*
X108815014Y-116332000D01*
X108834835Y-116457148D01*
X108892359Y-116570045D01*
X108904314Y-116582000D01*
X107941128Y-116582000D01*
X107993730Y-116778317D01*
X107993734Y-116778326D01*
X108089865Y-116984482D01*
X108220342Y-117170820D01*
X108381179Y-117331657D01*
X108567518Y-117462134D01*
X108567520Y-117462135D01*
X108625865Y-117489342D01*
X108678305Y-117535514D01*
X108697457Y-117602707D01*
X108677242Y-117669589D01*
X108625867Y-117714105D01*
X108625275Y-117714382D01*
X108567264Y-117741433D01*
X108380858Y-117871954D01*
X108219954Y-118032858D01*
X108089432Y-118219265D01*
X108089431Y-118219267D01*
X107993261Y-118425502D01*
X107993258Y-118425511D01*
X107934366Y-118645302D01*
X107934364Y-118645313D01*
X107914532Y-118871998D01*
X107914532Y-118872001D01*
X107934364Y-119098686D01*
X107934366Y-119098697D01*
X107993258Y-119318488D01*
X107993261Y-119318497D01*
X108089431Y-119524732D01*
X108089432Y-119524734D01*
X108219954Y-119711141D01*
X108380858Y-119872045D01*
X108380861Y-119872047D01*
X108567266Y-120002568D01*
X108625275Y-120029618D01*
X108677714Y-120075791D01*
X108696866Y-120142984D01*
X108676650Y-120209865D01*
X108625275Y-120254382D01*
X108567267Y-120281431D01*
X108567265Y-120281432D01*
X108380858Y-120411954D01*
X108219954Y-120572858D01*
X108089432Y-120759265D01*
X108089431Y-120759267D01*
X107993261Y-120965502D01*
X107993258Y-120965511D01*
X107934366Y-121185302D01*
X107934364Y-121185313D01*
X107914532Y-121411998D01*
X107914532Y-121412001D01*
X107934364Y-121638686D01*
X107934366Y-121638697D01*
X107993258Y-121858488D01*
X107993261Y-121858497D01*
X108089431Y-122064732D01*
X108089432Y-122064734D01*
X108219954Y-122251141D01*
X108380858Y-122412045D01*
X108405462Y-122429273D01*
X108449087Y-122483849D01*
X108456281Y-122553348D01*
X108424758Y-122615703D01*
X108364529Y-122651117D01*
X108347593Y-122654138D01*
X108312516Y-122657908D01*
X108177671Y-122708202D01*
X108177664Y-122708206D01*
X108062455Y-122794452D01*
X108062452Y-122794455D01*
X107976206Y-122909664D01*
X107976202Y-122909671D01*
X107925908Y-123044517D01*
X107919501Y-123104116D01*
X107919501Y-123104123D01*
X107919500Y-123104135D01*
X107919500Y-124799870D01*
X107919501Y-124799876D01*
X107925908Y-124859483D01*
X107976202Y-124994328D01*
X107976206Y-124994335D01*
X108062452Y-125109544D01*
X108062455Y-125109547D01*
X108177664Y-125195793D01*
X108177671Y-125195797D01*
X108312517Y-125246091D01*
X108312516Y-125246091D01*
X108319444Y-125246835D01*
X108372127Y-125252500D01*
X110067872Y-125252499D01*
X110127483Y-125246091D01*
X110262331Y-125195796D01*
X110377546Y-125109546D01*
X110463796Y-124994331D01*
X110514091Y-124859483D01*
X110520500Y-124799873D01*
X110520499Y-123104128D01*
X110514091Y-123044517D01*
X110479567Y-122951954D01*
X110463797Y-122909671D01*
X110463793Y-122909664D01*
X110377547Y-122794455D01*
X110377544Y-122794452D01*
X110262335Y-122708206D01*
X110262328Y-122708202D01*
X110127482Y-122657908D01*
X110127483Y-122657908D01*
X110092404Y-122654137D01*
X110027853Y-122627399D01*
X109988005Y-122570006D01*
X109985512Y-122500181D01*
X110021165Y-122440092D01*
X110034539Y-122429272D01*
X110059140Y-122412046D01*
X110220045Y-122251141D01*
X110220047Y-122251139D01*
X110350568Y-122064734D01*
X110446739Y-121858496D01*
X110505635Y-121638692D01*
X110525468Y-121412000D01*
X110505635Y-121185308D01*
X110446739Y-120965504D01*
X110350568Y-120759266D01*
X110220047Y-120572861D01*
X110220045Y-120572858D01*
X110059141Y-120411954D01*
X109872734Y-120281432D01*
X109872728Y-120281429D01*
X109814725Y-120254382D01*
X109762285Y-120208210D01*
X109743133Y-120141017D01*
X109763348Y-120074135D01*
X109814725Y-120029618D01*
X109872734Y-120002568D01*
X110059139Y-119872047D01*
X110220047Y-119711139D01*
X110350568Y-119524734D01*
X110446739Y-119318496D01*
X110505635Y-119098692D01*
X110525468Y-118872000D01*
X110525372Y-118870908D01*
X110505635Y-118645313D01*
X110505635Y-118645312D01*
X110505635Y-118645308D01*
X110446739Y-118425504D01*
X110350568Y-118219266D01*
X110220047Y-118032861D01*
X110220045Y-118032858D01*
X110059141Y-117871954D01*
X109872734Y-117741432D01*
X109872732Y-117741431D01*
X109814725Y-117714382D01*
X109814132Y-117714105D01*
X109761694Y-117667934D01*
X109742542Y-117600740D01*
X109762758Y-117533859D01*
X109814134Y-117489341D01*
X109872484Y-117462132D01*
X110058820Y-117331657D01*
X110219657Y-117170820D01*
X110350133Y-116984482D01*
X110360993Y-116961194D01*
X110407165Y-116908754D01*
X110474358Y-116889601D01*
X110541239Y-116909816D01*
X110561057Y-116925916D01*
X112540170Y-118905029D01*
X112573655Y-118966352D01*
X112576017Y-118981901D01*
X112586998Y-119107403D01*
X112587000Y-119107413D01*
X112648156Y-119335655D01*
X112648158Y-119335659D01*
X112648159Y-119335663D01*
X112736324Y-119524732D01*
X112748027Y-119549830D01*
X112748029Y-119549834D01*
X112883563Y-119743395D01*
X112883568Y-119743402D01*
X113050659Y-119910493D01*
X113050665Y-119910498D01*
X113236220Y-120040425D01*
X113279845Y-120095002D01*
X113287039Y-120164500D01*
X113255516Y-120226855D01*
X113236220Y-120243575D01*
X113050659Y-120373505D01*
X112883567Y-120540597D01*
X112748027Y-120734169D01*
X112748026Y-120734171D01*
X112648160Y-120948335D01*
X112648156Y-120948344D01*
X112587000Y-121176586D01*
X112586998Y-121176596D01*
X112566403Y-121411999D01*
X112566403Y-121412000D01*
X112586998Y-121647403D01*
X112587000Y-121647413D01*
X112648156Y-121875655D01*
X112648158Y-121875659D01*
X112648159Y-121875663D01*
X112736324Y-122064732D01*
X112748027Y-122089830D01*
X112748029Y-122089834D01*
X112883563Y-122283395D01*
X112883568Y-122283402D01*
X113050659Y-122450493D01*
X113050665Y-122450498D01*
X113236220Y-122580425D01*
X113279845Y-122635002D01*
X113287039Y-122704500D01*
X113255516Y-122766855D01*
X113236220Y-122783575D01*
X113050659Y-122913505D01*
X112883567Y-123080597D01*
X112748027Y-123274169D01*
X112748026Y-123274171D01*
X112648160Y-123488335D01*
X112648156Y-123488344D01*
X112587000Y-123716586D01*
X112586998Y-123716596D01*
X112566403Y-123951999D01*
X112566403Y-123952000D01*
X112586998Y-124187403D01*
X112587000Y-124187413D01*
X112648156Y-124415655D01*
X112648158Y-124415659D01*
X112648159Y-124415663D01*
X112736324Y-124604732D01*
X112748027Y-124629830D01*
X112748029Y-124629834D01*
X112856343Y-124784521D01*
X112883567Y-124823401D01*
X113050661Y-124990495D01*
X113147446Y-125058265D01*
X113244227Y-125126032D01*
X113244229Y-125126033D01*
X113244232Y-125126035D01*
X113458399Y-125225903D01*
X113686654Y-125287063D01*
X113874980Y-125303539D01*
X113922061Y-125307659D01*
X113922062Y-125307659D01*
X113922063Y-125307659D01*
X113961296Y-125304226D01*
X114157470Y-125287063D01*
X114385725Y-125225903D01*
X114599892Y-125126035D01*
X114793463Y-124990495D01*
X114960557Y-124823401D01*
X115096097Y-124629830D01*
X115195965Y-124415663D01*
X115257125Y-124187408D01*
X115277721Y-123952000D01*
X115257125Y-123716592D01*
X115195965Y-123488337D01*
X115096097Y-123274171D01*
X114977033Y-123104128D01*
X114960556Y-123080597D01*
X114793464Y-122913506D01*
X114793458Y-122913501D01*
X114607904Y-122783575D01*
X114564279Y-122728998D01*
X114557085Y-122659500D01*
X114588608Y-122597145D01*
X114607904Y-122580425D01*
X114722504Y-122500181D01*
X114793463Y-122450495D01*
X114960557Y-122283401D01*
X115096097Y-122089830D01*
X115195965Y-121875663D01*
X115257125Y-121647408D01*
X115277721Y-121412000D01*
X115257125Y-121176592D01*
X115195965Y-120948337D01*
X115096097Y-120734171D01*
X114960557Y-120540599D01*
X114960556Y-120540597D01*
X114793464Y-120373506D01*
X114793458Y-120373501D01*
X114607904Y-120243575D01*
X114564279Y-120188998D01*
X114557085Y-120119500D01*
X114588608Y-120057145D01*
X114607904Y-120040425D01*
X114661971Y-120002567D01*
X114793463Y-119910495D01*
X114960557Y-119743401D01*
X115096097Y-119549830D01*
X115195965Y-119335663D01*
X115257125Y-119107408D01*
X115277721Y-118872000D01*
X115277625Y-118870908D01*
X115257888Y-118645312D01*
X115257125Y-118636592D01*
X115195965Y-118408337D01*
X115096097Y-118194171D01*
X114960557Y-118000599D01*
X114960556Y-118000597D01*
X114793464Y-117833506D01*
X114793463Y-117833505D01*
X114607467Y-117703269D01*
X114563843Y-117648692D01*
X114556650Y-117579193D01*
X114588172Y-117516839D01*
X114607467Y-117500119D01*
X114793144Y-117370105D01*
X114960167Y-117203082D01*
X115095662Y-117009578D01*
X115195491Y-116795492D01*
X115195494Y-116795486D01*
X115252698Y-116582000D01*
X114355748Y-116582000D01*
X114381555Y-116541844D01*
X114422062Y-116403889D01*
X114422062Y-116260111D01*
X114381555Y-116122156D01*
X114355748Y-116082000D01*
X115252698Y-116082000D01*
X115252697Y-116081999D01*
X115195494Y-115868513D01*
X115195491Y-115868507D01*
X115095662Y-115654422D01*
X115095661Y-115654420D01*
X114960175Y-115460926D01*
X114960170Y-115460920D01*
X114838115Y-115338865D01*
X114804630Y-115277542D01*
X114809614Y-115207850D01*
X114851486Y-115151917D01*
X114882462Y-115135002D01*
X115014393Y-115085796D01*
X115129608Y-114999546D01*
X115215858Y-114884331D01*
X115266153Y-114749483D01*
X115272562Y-114689873D01*
X115272561Y-112894128D01*
X115266153Y-112834517D01*
X115215858Y-112699669D01*
X115215857Y-112699668D01*
X115215855Y-112699664D01*
X115129609Y-112584455D01*
X115129606Y-112584452D01*
X115014397Y-112498206D01*
X115014390Y-112498202D01*
X114879544Y-112447908D01*
X114879545Y-112447908D01*
X114819945Y-112441501D01*
X114819943Y-112441500D01*
X114819935Y-112441500D01*
X114819926Y-112441500D01*
X113024191Y-112441500D01*
X113024185Y-112441501D01*
X112964578Y-112447908D01*
X112829733Y-112498202D01*
X112829726Y-112498206D01*
X112714517Y-112584452D01*
X112714514Y-112584455D01*
X112628268Y-112699664D01*
X112628264Y-112699671D01*
X112577970Y-112834517D01*
X112571563Y-112894116D01*
X112571563Y-112894123D01*
X112571562Y-112894135D01*
X112571562Y-114689870D01*
X112571563Y-114689876D01*
X112577970Y-114749483D01*
X112628264Y-114884328D01*
X112628268Y-114884335D01*
X112714514Y-114999544D01*
X112714517Y-114999547D01*
X112829726Y-115085793D01*
X112829733Y-115085797D01*
X112829736Y-115085798D01*
X112961660Y-115135002D01*
X113017593Y-115176873D01*
X113042011Y-115242337D01*
X113027160Y-115310610D01*
X113006009Y-115338865D01*
X112883948Y-115460926D01*
X112748462Y-115654420D01*
X112748461Y-115654422D01*
X112648632Y-115868507D01*
X112648626Y-115868522D01*
X112637620Y-115909597D01*
X112601255Y-115969257D01*
X112538407Y-115999785D01*
X112469032Y-115991490D01*
X112430166Y-115965184D01*
X110067628Y-113602646D01*
X110065436Y-113600398D01*
X110005123Y-113536949D01*
X110005122Y-113536948D01*
X110005121Y-113536947D01*
X109956702Y-113503246D01*
X109949182Y-113497575D01*
X109903475Y-113460305D01*
X109903468Y-113460301D01*
X109876503Y-113446216D01*
X109863088Y-113438089D01*
X109838111Y-113420705D01*
X109838108Y-113420703D01*
X109838107Y-113420703D01*
X109838103Y-113420701D01*
X109783907Y-113397443D01*
X109775398Y-113393402D01*
X109723119Y-113366094D01*
X109723108Y-113366090D01*
X109693868Y-113357723D01*
X109679083Y-113352459D01*
X109651120Y-113340459D01*
X109593335Y-113328583D01*
X109584189Y-113326338D01*
X109527485Y-113310113D01*
X109503761Y-113308306D01*
X109497134Y-113307801D01*
X109481595Y-113305622D01*
X109451804Y-113299500D01*
X109451803Y-113299500D01*
X109392821Y-113299500D01*
X109383406Y-113299142D01*
X109380705Y-113298936D01*
X109324586Y-113294662D01*
X109294411Y-113298506D01*
X109278744Y-113299500D01*
X106186237Y-113299500D01*
X106183097Y-113299460D01*
X106145444Y-113298506D01*
X106095636Y-113297244D01*
X106095635Y-113297244D01*
X106095626Y-113297244D01*
X106037582Y-113307648D01*
X106028253Y-113308957D01*
X105969564Y-113314925D01*
X105940527Y-113324035D01*
X105925288Y-113327775D01*
X105895349Y-113333141D01*
X105840567Y-113355022D01*
X105831698Y-113358179D01*
X105775414Y-113375840D01*
X105775410Y-113375842D01*
X105748811Y-113390605D01*
X105734638Y-113397336D01*
X105706382Y-113408623D01*
X105706378Y-113408625D01*
X105657122Y-113441086D01*
X105649069Y-113445965D01*
X105597501Y-113474588D01*
X105574413Y-113494408D01*
X105561887Y-113503852D01*
X105536485Y-113520594D01*
X105536478Y-113520600D01*
X105494774Y-113562303D01*
X105487869Y-113568703D01*
X105443102Y-113607136D01*
X105424480Y-113631193D01*
X105414108Y-113642969D01*
X103051479Y-116005598D01*
X102990156Y-116039083D01*
X102920464Y-116034099D01*
X102864531Y-115992227D01*
X102844023Y-115950009D01*
X102826742Y-115885513D01*
X102826738Y-115885502D01*
X102808933Y-115847320D01*
X102730568Y-115679266D01*
X102600047Y-115492861D01*
X102600045Y-115492858D01*
X102439141Y-115331954D01*
X102252734Y-115201432D01*
X102252732Y-115201431D01*
X102046497Y-115105261D01*
X102046488Y-115105258D01*
X101826697Y-115046366D01*
X101826693Y-115046365D01*
X101826692Y-115046365D01*
X101826691Y-115046364D01*
X101826686Y-115046364D01*
X101600002Y-115026532D01*
X101599998Y-115026532D01*
X101373313Y-115046364D01*
X101373302Y-115046366D01*
X101153511Y-115105258D01*
X101153502Y-115105261D01*
X100947267Y-115201431D01*
X100947265Y-115201432D01*
X100760858Y-115331954D01*
X100599954Y-115492858D01*
X100469432Y-115679265D01*
X100469431Y-115679267D01*
X100373261Y-115885502D01*
X100373258Y-115885511D01*
X100314366Y-116105302D01*
X100314364Y-116105313D01*
X100294532Y-116331998D01*
X100294532Y-116332001D01*
X100314364Y-116558686D01*
X100314366Y-116558697D01*
X100373258Y-116778488D01*
X100373261Y-116778497D01*
X100469431Y-116984732D01*
X100469432Y-116984734D01*
X100599954Y-117171141D01*
X100760858Y-117332045D01*
X100760861Y-117332047D01*
X100947266Y-117462568D01*
X101004681Y-117489341D01*
X101005275Y-117489618D01*
X101057714Y-117535791D01*
X101076866Y-117602984D01*
X101056650Y-117669865D01*
X101005275Y-117714382D01*
X100947267Y-117741431D01*
X100947265Y-117741432D01*
X100760858Y-117871954D01*
X100599954Y-118032858D01*
X100469432Y-118219265D01*
X100469431Y-118219267D01*
X100373261Y-118425502D01*
X100373258Y-118425511D01*
X100314366Y-118645302D01*
X100314364Y-118645312D01*
X100295819Y-118857284D01*
X100291882Y-118867347D01*
X100296026Y-118889085D01*
X100314364Y-119098687D01*
X100314366Y-119098697D01*
X100373258Y-119318488D01*
X100373261Y-119318497D01*
X100469431Y-119524732D01*
X100469432Y-119524734D01*
X100599954Y-119711141D01*
X100760858Y-119872045D01*
X100760861Y-119872047D01*
X100947266Y-120002568D01*
X101005275Y-120029618D01*
X101057714Y-120075791D01*
X101076866Y-120142984D01*
X101056650Y-120209865D01*
X101005275Y-120254382D01*
X100947267Y-120281431D01*
X100947265Y-120281432D01*
X100760858Y-120411954D01*
X100599954Y-120572858D01*
X100469432Y-120759265D01*
X100469431Y-120759267D01*
X100373261Y-120965502D01*
X100373258Y-120965511D01*
X100314366Y-121185302D01*
X100314364Y-121185312D01*
X100305261Y-121289364D01*
X100279808Y-121354432D01*
X100223217Y-121395411D01*
X100153455Y-121399289D01*
X100092671Y-121364835D01*
X100060164Y-121302988D01*
X100057734Y-121279037D01*
X100057370Y-121185302D01*
X100048499Y-118900371D01*
X100054787Y-118878643D01*
X100050722Y-118870908D01*
X100048292Y-118846957D01*
X100047509Y-118645313D01*
X100000501Y-106536665D01*
X100000500Y-106536184D01*
X100000500Y-105625000D01*
X104179341Y-105625000D01*
X104199936Y-105860403D01*
X104199938Y-105860413D01*
X104261094Y-106088655D01*
X104261096Y-106088659D01*
X104261097Y-106088663D01*
X104265000Y-106097032D01*
X104360965Y-106302830D01*
X104360967Y-106302834D01*
X104469281Y-106457521D01*
X104496505Y-106496401D01*
X104663599Y-106663495D01*
X104760384Y-106731265D01*
X104857165Y-106799032D01*
X104857167Y-106799033D01*
X104857170Y-106799035D01*
X105071337Y-106898903D01*
X105299592Y-106960063D01*
X105487918Y-106976539D01*
X105534999Y-106980659D01*
X105535000Y-106980659D01*
X105535001Y-106980659D01*
X105574234Y-106977226D01*
X105770408Y-106960063D01*
X105998663Y-106898903D01*
X106212830Y-106799035D01*
X106406401Y-106663495D01*
X106573495Y-106496401D01*
X106703425Y-106310842D01*
X106758002Y-106267217D01*
X106827500Y-106260023D01*
X106889855Y-106291546D01*
X106906575Y-106310842D01*
X107036500Y-106496395D01*
X107036505Y-106496401D01*
X107203599Y-106663495D01*
X107300384Y-106731265D01*
X107397165Y-106799032D01*
X107397167Y-106799033D01*
X107397170Y-106799035D01*
X107611337Y-106898903D01*
X107839592Y-106960063D01*
X108027918Y-106976539D01*
X108074999Y-106980659D01*
X108075000Y-106980659D01*
X108075001Y-106980659D01*
X108114234Y-106977226D01*
X108310408Y-106960063D01*
X108538663Y-106898903D01*
X108752830Y-106799035D01*
X108946401Y-106663495D01*
X109113495Y-106496401D01*
X109249035Y-106302830D01*
X109348903Y-106088663D01*
X109410063Y-105860408D01*
X109430659Y-105625000D01*
X109410063Y-105389592D01*
X109348903Y-105161337D01*
X109249035Y-104947171D01*
X109243425Y-104939158D01*
X109113494Y-104753597D01*
X108946402Y-104586506D01*
X108946396Y-104586501D01*
X108760842Y-104456575D01*
X108717217Y-104401998D01*
X108710023Y-104332500D01*
X108741546Y-104270145D01*
X108760842Y-104253425D01*
X108783026Y-104237891D01*
X108946401Y-104123495D01*
X109113495Y-103956401D01*
X109249035Y-103762830D01*
X109348903Y-103548663D01*
X109410063Y-103320408D01*
X109430659Y-103085000D01*
X109410063Y-102849592D01*
X109348903Y-102621337D01*
X109249035Y-102407171D01*
X109243425Y-102399158D01*
X109113494Y-102213597D01*
X108946402Y-102046506D01*
X108946396Y-102046501D01*
X108760842Y-101916575D01*
X108717217Y-101861998D01*
X108710023Y-101792500D01*
X108741546Y-101730145D01*
X108760842Y-101713425D01*
X108869865Y-101637086D01*
X108946401Y-101583495D01*
X109113495Y-101416401D01*
X109249035Y-101222830D01*
X109348903Y-101008663D01*
X109410063Y-100780408D01*
X109430659Y-100545000D01*
X109410063Y-100309592D01*
X109348903Y-100081337D01*
X109249035Y-99867171D01*
X109113495Y-99673599D01*
X109113494Y-99673597D01*
X108946402Y-99506506D01*
X108946395Y-99506501D01*
X108752834Y-99370967D01*
X108752830Y-99370965D01*
X108681727Y-99337809D01*
X108538663Y-99271097D01*
X108538659Y-99271096D01*
X108538655Y-99271094D01*
X108310413Y-99209938D01*
X108310403Y-99209936D01*
X108075001Y-99189341D01*
X108074999Y-99189341D01*
X107839596Y-99209936D01*
X107839586Y-99209938D01*
X107611344Y-99271094D01*
X107611335Y-99271098D01*
X107397171Y-99370964D01*
X107397169Y-99370965D01*
X107203600Y-99506503D01*
X107081284Y-99628819D01*
X107019961Y-99662303D01*
X106950269Y-99657319D01*
X106894336Y-99615447D01*
X106877421Y-99584470D01*
X106828354Y-99452913D01*
X106828350Y-99452906D01*
X106742190Y-99337812D01*
X106742187Y-99337809D01*
X106627093Y-99251649D01*
X106627086Y-99251645D01*
X106492379Y-99201403D01*
X106492372Y-99201401D01*
X106432844Y-99195000D01*
X105785000Y-99195000D01*
X105785000Y-100109498D01*
X105677315Y-100060320D01*
X105570763Y-100045000D01*
X105499237Y-100045000D01*
X105392685Y-100060320D01*
X105285000Y-100109498D01*
X105285000Y-99195000D01*
X104637155Y-99195000D01*
X104577627Y-99201401D01*
X104577620Y-99201403D01*
X104442913Y-99251645D01*
X104442906Y-99251649D01*
X104327812Y-99337809D01*
X104327809Y-99337812D01*
X104241649Y-99452906D01*
X104241645Y-99452913D01*
X104191403Y-99587620D01*
X104191401Y-99587627D01*
X104185000Y-99647155D01*
X104185000Y-100295000D01*
X105101314Y-100295000D01*
X105075507Y-100335156D01*
X105035000Y-100473111D01*
X105035000Y-100616889D01*
X105075507Y-100754844D01*
X105101314Y-100795000D01*
X104185000Y-100795000D01*
X104185000Y-101442844D01*
X104191401Y-101502372D01*
X104191403Y-101502379D01*
X104241645Y-101637086D01*
X104241649Y-101637093D01*
X104327809Y-101752187D01*
X104327812Y-101752190D01*
X104442906Y-101838350D01*
X104442913Y-101838354D01*
X104574470Y-101887421D01*
X104630403Y-101929292D01*
X104654821Y-101994756D01*
X104639970Y-102063029D01*
X104618819Y-102091284D01*
X104496503Y-102213600D01*
X104360965Y-102407169D01*
X104360964Y-102407171D01*
X104261098Y-102621335D01*
X104261094Y-102621344D01*
X104199938Y-102849586D01*
X104199936Y-102849596D01*
X104179341Y-103084999D01*
X104179341Y-103085000D01*
X104199936Y-103320403D01*
X104199938Y-103320413D01*
X104261094Y-103548655D01*
X104261096Y-103548659D01*
X104261097Y-103548663D01*
X104265000Y-103557032D01*
X104360965Y-103762830D01*
X104360967Y-103762834D01*
X104469281Y-103917521D01*
X104496501Y-103956396D01*
X104496506Y-103956402D01*
X104663597Y-104123493D01*
X104663603Y-104123498D01*
X104849158Y-104253425D01*
X104892783Y-104308002D01*
X104899977Y-104377500D01*
X104868454Y-104439855D01*
X104849158Y-104456575D01*
X104663597Y-104586505D01*
X104496505Y-104753597D01*
X104360965Y-104947169D01*
X104360964Y-104947171D01*
X104261098Y-105161335D01*
X104261094Y-105161344D01*
X104199938Y-105389586D01*
X104199936Y-105389596D01*
X104179341Y-105624999D01*
X104179341Y-105625000D01*
X100000500Y-105625000D01*
X100000500Y-93983500D01*
X100020185Y-93916461D01*
X100072989Y-93870706D01*
X100124500Y-93859500D01*
X115805617Y-93859500D01*
X115872656Y-93879185D01*
G37*
%TD.AperFunction*%
%TD*%
M02*
