%TF.GenerationSoftware,KiCad,Pcbnew,7.0.10*%
%TF.CreationDate,2026-05-05T12:38:51+02:00*%
%TF.ProjectId,TM1638-I2C,544d3136-3338-42d4-9932-432e6b696361,rev?*%
%TF.SameCoordinates,Original*%
%TF.FileFunction,Drillmap*%
%TF.FilePolarity,Positive*%
%FSLAX45Y45*%
G04 Gerber Fmt 4.5, Leading zero omitted, Abs format (unit mm)*
G04 Created by KiCad (PCBNEW 7.0.10) date 2026-05-05 12:38:51*
%MOMM*%
%LPD*%
G01*
G04 APERTURE LIST*
%ADD10C,0.200000*%
%ADD11C,0.100000*%
G04 APERTURE END LIST*
D10*
X10000000Y-9385900D02*
X11600000Y-9385900D01*
X11600000Y-12600000D01*
X10000000Y-12600000D01*
X10000000Y-9385900D01*
D11*
X10120000Y-11593200D02*
X10200000Y-11673200D01*
X10200000Y-11593200D02*
X10120000Y-11673200D01*
X10120000Y-11847200D02*
X10200000Y-11927200D01*
X10200000Y-11847200D02*
X10120000Y-11927200D01*
X10120000Y-12101200D02*
X10200000Y-12181200D01*
X10200000Y-12101200D02*
X10120000Y-12181200D01*
X10120000Y-12355200D02*
X10200000Y-12435200D01*
X10200000Y-12355200D02*
X10120000Y-12435200D01*
X10882000Y-11593200D02*
X10962000Y-11673200D01*
X10962000Y-11593200D02*
X10882000Y-11673200D01*
X10882000Y-11847200D02*
X10962000Y-11927200D01*
X10962000Y-11847200D02*
X10882000Y-11927200D01*
X10882000Y-12101200D02*
X10962000Y-12181200D01*
X10962000Y-12101200D02*
X10882000Y-12181200D01*
X10882000Y-12355200D02*
X10962000Y-12435200D01*
X10962000Y-12355200D02*
X10882000Y-12435200D01*
X10603500Y-10054500D02*
G75*
G03*
X10503500Y-10054500I-50000J0D01*
G01*
X10503500Y-10054500D02*
G75*
G03*
X10603500Y-10054500I50000J0D01*
G01*
X10603500Y-10308500D02*
G75*
G03*
X10503500Y-10308500I-50000J0D01*
G01*
X10503500Y-10308500D02*
G75*
G03*
X10603500Y-10308500I50000J0D01*
G01*
X10603500Y-10562500D02*
G75*
G03*
X10503500Y-10562500I-50000J0D01*
G01*
X10503500Y-10562500D02*
G75*
G03*
X10603500Y-10562500I50000J0D01*
G01*
X10857500Y-10054500D02*
G75*
G03*
X10757500Y-10054500I-50000J0D01*
G01*
X10757500Y-10054500D02*
G75*
G03*
X10857500Y-10054500I50000J0D01*
G01*
X10857500Y-10308500D02*
G75*
G03*
X10757500Y-10308500I-50000J0D01*
G01*
X10757500Y-10308500D02*
G75*
G03*
X10857500Y-10308500I50000J0D01*
G01*
X10857500Y-10562500D02*
G75*
G03*
X10757500Y-10562500I-50000J0D01*
G01*
X10757500Y-10562500D02*
G75*
G03*
X10857500Y-10562500I50000J0D01*
G01*
X11442206Y-11379200D02*
G75*
G03*
X11342206Y-11379200I-50000J0D01*
G01*
X11342206Y-11379200D02*
G75*
G03*
X11442206Y-11379200I50000J0D01*
G01*
X11442206Y-11633200D02*
G75*
G03*
X11342206Y-11633200I-50000J0D01*
G01*
X11342206Y-11633200D02*
G75*
G03*
X11442206Y-11633200I50000J0D01*
G01*
X11442206Y-11887200D02*
G75*
G03*
X11342206Y-11887200I-50000J0D01*
G01*
X11342206Y-11887200D02*
G75*
G03*
X11442206Y-11887200I50000J0D01*
G01*
X11442206Y-12141200D02*
G75*
G03*
X11342206Y-12141200I-50000J0D01*
G01*
X11342206Y-12141200D02*
G75*
G03*
X11442206Y-12141200I50000J0D01*
G01*
X11442206Y-12395200D02*
G75*
G03*
X11342206Y-12395200I-50000J0D01*
G01*
X11342206Y-12395200D02*
G75*
G03*
X11442206Y-12395200I50000J0D01*
G01*
D10*
X10250777Y-12921484D02*
X10250777Y-12721484D01*
X10250777Y-12721484D02*
X10298396Y-12721484D01*
X10298396Y-12721484D02*
X10326967Y-12731008D01*
X10326967Y-12731008D02*
X10346015Y-12750055D01*
X10346015Y-12750055D02*
X10355539Y-12769103D01*
X10355539Y-12769103D02*
X10365063Y-12807198D01*
X10365063Y-12807198D02*
X10365063Y-12835769D01*
X10365063Y-12835769D02*
X10355539Y-12873865D01*
X10355539Y-12873865D02*
X10346015Y-12892912D01*
X10346015Y-12892912D02*
X10326967Y-12911960D01*
X10326967Y-12911960D02*
X10298396Y-12921484D01*
X10298396Y-12921484D02*
X10250777Y-12921484D01*
X10450777Y-12921484D02*
X10450777Y-12788150D01*
X10450777Y-12826246D02*
X10460301Y-12807198D01*
X10460301Y-12807198D02*
X10469824Y-12797674D01*
X10469824Y-12797674D02*
X10488872Y-12788150D01*
X10488872Y-12788150D02*
X10507920Y-12788150D01*
X10574586Y-12921484D02*
X10574586Y-12788150D01*
X10574586Y-12721484D02*
X10565063Y-12731008D01*
X10565063Y-12731008D02*
X10574586Y-12740531D01*
X10574586Y-12740531D02*
X10584110Y-12731008D01*
X10584110Y-12731008D02*
X10574586Y-12721484D01*
X10574586Y-12721484D02*
X10574586Y-12740531D01*
X10698396Y-12921484D02*
X10679348Y-12911960D01*
X10679348Y-12911960D02*
X10669824Y-12892912D01*
X10669824Y-12892912D02*
X10669824Y-12721484D01*
X10803158Y-12921484D02*
X10784110Y-12911960D01*
X10784110Y-12911960D02*
X10774586Y-12892912D01*
X10774586Y-12892912D02*
X10774586Y-12721484D01*
X11031729Y-12921484D02*
X11031729Y-12721484D01*
X11031729Y-12721484D02*
X11098396Y-12864341D01*
X11098396Y-12864341D02*
X11165063Y-12721484D01*
X11165063Y-12721484D02*
X11165063Y-12921484D01*
X11346015Y-12921484D02*
X11346015Y-12816722D01*
X11346015Y-12816722D02*
X11336491Y-12797674D01*
X11336491Y-12797674D02*
X11317443Y-12788150D01*
X11317443Y-12788150D02*
X11279348Y-12788150D01*
X11279348Y-12788150D02*
X11260301Y-12797674D01*
X11346015Y-12911960D02*
X11326967Y-12921484D01*
X11326967Y-12921484D02*
X11279348Y-12921484D01*
X11279348Y-12921484D02*
X11260301Y-12911960D01*
X11260301Y-12911960D02*
X11250777Y-12892912D01*
X11250777Y-12892912D02*
X11250777Y-12873865D01*
X11250777Y-12873865D02*
X11260301Y-12854817D01*
X11260301Y-12854817D02*
X11279348Y-12845293D01*
X11279348Y-12845293D02*
X11326967Y-12845293D01*
X11326967Y-12845293D02*
X11346015Y-12835769D01*
X11441253Y-12788150D02*
X11441253Y-12988150D01*
X11441253Y-12797674D02*
X11460301Y-12788150D01*
X11460301Y-12788150D02*
X11498396Y-12788150D01*
X11498396Y-12788150D02*
X11517443Y-12797674D01*
X11517443Y-12797674D02*
X11526967Y-12807198D01*
X11526967Y-12807198D02*
X11536491Y-12826246D01*
X11536491Y-12826246D02*
X11536491Y-12883388D01*
X11536491Y-12883388D02*
X11526967Y-12902436D01*
X11526967Y-12902436D02*
X11517443Y-12911960D01*
X11517443Y-12911960D02*
X11498396Y-12921484D01*
X11498396Y-12921484D02*
X11460301Y-12921484D01*
X11460301Y-12921484D02*
X11441253Y-12911960D01*
X11622205Y-12902436D02*
X11631729Y-12911960D01*
X11631729Y-12911960D02*
X11622205Y-12921484D01*
X11622205Y-12921484D02*
X11612682Y-12911960D01*
X11612682Y-12911960D02*
X11622205Y-12902436D01*
X11622205Y-12902436D02*
X11622205Y-12921484D01*
X11622205Y-12797674D02*
X11631729Y-12807198D01*
X11631729Y-12807198D02*
X11622205Y-12816722D01*
X11622205Y-12816722D02*
X11612682Y-12807198D01*
X11612682Y-12807198D02*
X11622205Y-12797674D01*
X11622205Y-12797674D02*
X11622205Y-12816722D01*
D11*
X9910000Y-13210000D02*
X9990000Y-13290000D01*
X9990000Y-13210000D02*
X9910000Y-13290000D01*
D10*
X10288872Y-13141484D02*
X10307920Y-13141484D01*
X10307920Y-13141484D02*
X10326967Y-13151008D01*
X10326967Y-13151008D02*
X10336491Y-13160531D01*
X10336491Y-13160531D02*
X10346015Y-13179579D01*
X10346015Y-13179579D02*
X10355539Y-13217674D01*
X10355539Y-13217674D02*
X10355539Y-13265293D01*
X10355539Y-13265293D02*
X10346015Y-13303388D01*
X10346015Y-13303388D02*
X10336491Y-13322436D01*
X10336491Y-13322436D02*
X10326967Y-13331960D01*
X10326967Y-13331960D02*
X10307920Y-13341484D01*
X10307920Y-13341484D02*
X10288872Y-13341484D01*
X10288872Y-13341484D02*
X10269824Y-13331960D01*
X10269824Y-13331960D02*
X10260301Y-13322436D01*
X10260301Y-13322436D02*
X10250777Y-13303388D01*
X10250777Y-13303388D02*
X10241253Y-13265293D01*
X10241253Y-13265293D02*
X10241253Y-13217674D01*
X10241253Y-13217674D02*
X10250777Y-13179579D01*
X10250777Y-13179579D02*
X10260301Y-13160531D01*
X10260301Y-13160531D02*
X10269824Y-13151008D01*
X10269824Y-13151008D02*
X10288872Y-13141484D01*
X10441253Y-13322436D02*
X10450777Y-13331960D01*
X10450777Y-13331960D02*
X10441253Y-13341484D01*
X10441253Y-13341484D02*
X10431729Y-13331960D01*
X10431729Y-13331960D02*
X10441253Y-13322436D01*
X10441253Y-13322436D02*
X10441253Y-13341484D01*
X10565063Y-13227198D02*
X10546015Y-13217674D01*
X10546015Y-13217674D02*
X10536491Y-13208150D01*
X10536491Y-13208150D02*
X10526967Y-13189103D01*
X10526967Y-13189103D02*
X10526967Y-13179579D01*
X10526967Y-13179579D02*
X10536491Y-13160531D01*
X10536491Y-13160531D02*
X10546015Y-13151008D01*
X10546015Y-13151008D02*
X10565063Y-13141484D01*
X10565063Y-13141484D02*
X10603158Y-13141484D01*
X10603158Y-13141484D02*
X10622205Y-13151008D01*
X10622205Y-13151008D02*
X10631729Y-13160531D01*
X10631729Y-13160531D02*
X10641253Y-13179579D01*
X10641253Y-13179579D02*
X10641253Y-13189103D01*
X10641253Y-13189103D02*
X10631729Y-13208150D01*
X10631729Y-13208150D02*
X10622205Y-13217674D01*
X10622205Y-13217674D02*
X10603158Y-13227198D01*
X10603158Y-13227198D02*
X10565063Y-13227198D01*
X10565063Y-13227198D02*
X10546015Y-13236722D01*
X10546015Y-13236722D02*
X10536491Y-13246246D01*
X10536491Y-13246246D02*
X10526967Y-13265293D01*
X10526967Y-13265293D02*
X10526967Y-13303388D01*
X10526967Y-13303388D02*
X10536491Y-13322436D01*
X10536491Y-13322436D02*
X10546015Y-13331960D01*
X10546015Y-13331960D02*
X10565063Y-13341484D01*
X10565063Y-13341484D02*
X10603158Y-13341484D01*
X10603158Y-13341484D02*
X10622205Y-13331960D01*
X10622205Y-13331960D02*
X10631729Y-13322436D01*
X10631729Y-13322436D02*
X10641253Y-13303388D01*
X10641253Y-13303388D02*
X10641253Y-13265293D01*
X10641253Y-13265293D02*
X10631729Y-13246246D01*
X10631729Y-13246246D02*
X10622205Y-13236722D01*
X10622205Y-13236722D02*
X10603158Y-13227198D01*
X10765063Y-13141484D02*
X10784110Y-13141484D01*
X10784110Y-13141484D02*
X10803158Y-13151008D01*
X10803158Y-13151008D02*
X10812682Y-13160531D01*
X10812682Y-13160531D02*
X10822205Y-13179579D01*
X10822205Y-13179579D02*
X10831729Y-13217674D01*
X10831729Y-13217674D02*
X10831729Y-13265293D01*
X10831729Y-13265293D02*
X10822205Y-13303388D01*
X10822205Y-13303388D02*
X10812682Y-13322436D01*
X10812682Y-13322436D02*
X10803158Y-13331960D01*
X10803158Y-13331960D02*
X10784110Y-13341484D01*
X10784110Y-13341484D02*
X10765063Y-13341484D01*
X10765063Y-13341484D02*
X10746015Y-13331960D01*
X10746015Y-13331960D02*
X10736491Y-13322436D01*
X10736491Y-13322436D02*
X10726967Y-13303388D01*
X10726967Y-13303388D02*
X10717444Y-13265293D01*
X10717444Y-13265293D02*
X10717444Y-13217674D01*
X10717444Y-13217674D02*
X10726967Y-13179579D01*
X10726967Y-13179579D02*
X10736491Y-13160531D01*
X10736491Y-13160531D02*
X10746015Y-13151008D01*
X10746015Y-13151008D02*
X10765063Y-13141484D01*
X10955539Y-13141484D02*
X10974586Y-13141484D01*
X10974586Y-13141484D02*
X10993634Y-13151008D01*
X10993634Y-13151008D02*
X11003158Y-13160531D01*
X11003158Y-13160531D02*
X11012682Y-13179579D01*
X11012682Y-13179579D02*
X11022205Y-13217674D01*
X11022205Y-13217674D02*
X11022205Y-13265293D01*
X11022205Y-13265293D02*
X11012682Y-13303388D01*
X11012682Y-13303388D02*
X11003158Y-13322436D01*
X11003158Y-13322436D02*
X10993634Y-13331960D01*
X10993634Y-13331960D02*
X10974586Y-13341484D01*
X10974586Y-13341484D02*
X10955539Y-13341484D01*
X10955539Y-13341484D02*
X10936491Y-13331960D01*
X10936491Y-13331960D02*
X10926967Y-13322436D01*
X10926967Y-13322436D02*
X10917444Y-13303388D01*
X10917444Y-13303388D02*
X10907920Y-13265293D01*
X10907920Y-13265293D02*
X10907920Y-13217674D01*
X10907920Y-13217674D02*
X10917444Y-13179579D01*
X10917444Y-13179579D02*
X10926967Y-13160531D01*
X10926967Y-13160531D02*
X10936491Y-13151008D01*
X10936491Y-13151008D02*
X10955539Y-13141484D01*
X11107920Y-13341484D02*
X11107920Y-13208150D01*
X11107920Y-13227198D02*
X11117444Y-13217674D01*
X11117444Y-13217674D02*
X11136491Y-13208150D01*
X11136491Y-13208150D02*
X11165063Y-13208150D01*
X11165063Y-13208150D02*
X11184110Y-13217674D01*
X11184110Y-13217674D02*
X11193634Y-13236722D01*
X11193634Y-13236722D02*
X11193634Y-13341484D01*
X11193634Y-13236722D02*
X11203158Y-13217674D01*
X11203158Y-13217674D02*
X11222205Y-13208150D01*
X11222205Y-13208150D02*
X11250777Y-13208150D01*
X11250777Y-13208150D02*
X11269824Y-13217674D01*
X11269824Y-13217674D02*
X11279348Y-13236722D01*
X11279348Y-13236722D02*
X11279348Y-13341484D01*
X11374586Y-13341484D02*
X11374586Y-13208150D01*
X11374586Y-13227198D02*
X11384110Y-13217674D01*
X11384110Y-13217674D02*
X11403158Y-13208150D01*
X11403158Y-13208150D02*
X11431729Y-13208150D01*
X11431729Y-13208150D02*
X11450777Y-13217674D01*
X11450777Y-13217674D02*
X11460301Y-13236722D01*
X11460301Y-13236722D02*
X11460301Y-13341484D01*
X11460301Y-13236722D02*
X11469824Y-13217674D01*
X11469824Y-13217674D02*
X11488872Y-13208150D01*
X11488872Y-13208150D02*
X11517443Y-13208150D01*
X11517443Y-13208150D02*
X11536491Y-13217674D01*
X11536491Y-13217674D02*
X11546015Y-13236722D01*
X11546015Y-13236722D02*
X11546015Y-13341484D01*
X11936491Y-13131960D02*
X11765063Y-13389103D01*
X12193634Y-13141484D02*
X12212682Y-13141484D01*
X12212682Y-13141484D02*
X12231729Y-13151008D01*
X12231729Y-13151008D02*
X12241253Y-13160531D01*
X12241253Y-13160531D02*
X12250777Y-13179579D01*
X12250777Y-13179579D02*
X12260301Y-13217674D01*
X12260301Y-13217674D02*
X12260301Y-13265293D01*
X12260301Y-13265293D02*
X12250777Y-13303388D01*
X12250777Y-13303388D02*
X12241253Y-13322436D01*
X12241253Y-13322436D02*
X12231729Y-13331960D01*
X12231729Y-13331960D02*
X12212682Y-13341484D01*
X12212682Y-13341484D02*
X12193634Y-13341484D01*
X12193634Y-13341484D02*
X12174586Y-13331960D01*
X12174586Y-13331960D02*
X12165063Y-13322436D01*
X12165063Y-13322436D02*
X12155539Y-13303388D01*
X12155539Y-13303388D02*
X12146015Y-13265293D01*
X12146015Y-13265293D02*
X12146015Y-13217674D01*
X12146015Y-13217674D02*
X12155539Y-13179579D01*
X12155539Y-13179579D02*
X12165063Y-13160531D01*
X12165063Y-13160531D02*
X12174586Y-13151008D01*
X12174586Y-13151008D02*
X12193634Y-13141484D01*
X12346015Y-13322436D02*
X12355539Y-13331960D01*
X12355539Y-13331960D02*
X12346015Y-13341484D01*
X12346015Y-13341484D02*
X12336491Y-13331960D01*
X12336491Y-13331960D02*
X12346015Y-13322436D01*
X12346015Y-13322436D02*
X12346015Y-13341484D01*
X12479348Y-13141484D02*
X12498396Y-13141484D01*
X12498396Y-13141484D02*
X12517444Y-13151008D01*
X12517444Y-13151008D02*
X12526967Y-13160531D01*
X12526967Y-13160531D02*
X12536491Y-13179579D01*
X12536491Y-13179579D02*
X12546015Y-13217674D01*
X12546015Y-13217674D02*
X12546015Y-13265293D01*
X12546015Y-13265293D02*
X12536491Y-13303388D01*
X12536491Y-13303388D02*
X12526967Y-13322436D01*
X12526967Y-13322436D02*
X12517444Y-13331960D01*
X12517444Y-13331960D02*
X12498396Y-13341484D01*
X12498396Y-13341484D02*
X12479348Y-13341484D01*
X12479348Y-13341484D02*
X12460301Y-13331960D01*
X12460301Y-13331960D02*
X12450777Y-13322436D01*
X12450777Y-13322436D02*
X12441253Y-13303388D01*
X12441253Y-13303388D02*
X12431729Y-13265293D01*
X12431729Y-13265293D02*
X12431729Y-13217674D01*
X12431729Y-13217674D02*
X12441253Y-13179579D01*
X12441253Y-13179579D02*
X12450777Y-13160531D01*
X12450777Y-13160531D02*
X12460301Y-13151008D01*
X12460301Y-13151008D02*
X12479348Y-13141484D01*
X12612682Y-13141484D02*
X12736491Y-13141484D01*
X12736491Y-13141484D02*
X12669825Y-13217674D01*
X12669825Y-13217674D02*
X12698396Y-13217674D01*
X12698396Y-13217674D02*
X12717444Y-13227198D01*
X12717444Y-13227198D02*
X12726967Y-13236722D01*
X12726967Y-13236722D02*
X12736491Y-13255769D01*
X12736491Y-13255769D02*
X12736491Y-13303388D01*
X12736491Y-13303388D02*
X12726967Y-13322436D01*
X12726967Y-13322436D02*
X12717444Y-13331960D01*
X12717444Y-13331960D02*
X12698396Y-13341484D01*
X12698396Y-13341484D02*
X12641253Y-13341484D01*
X12641253Y-13341484D02*
X12622206Y-13331960D01*
X12622206Y-13331960D02*
X12612682Y-13322436D01*
X12926967Y-13341484D02*
X12812682Y-13341484D01*
X12869825Y-13341484D02*
X12869825Y-13141484D01*
X12869825Y-13141484D02*
X12850777Y-13170055D01*
X12850777Y-13170055D02*
X12831729Y-13189103D01*
X12831729Y-13189103D02*
X12812682Y-13198627D01*
X13107920Y-13141484D02*
X13012682Y-13141484D01*
X13012682Y-13141484D02*
X13003158Y-13236722D01*
X13003158Y-13236722D02*
X13012682Y-13227198D01*
X13012682Y-13227198D02*
X13031729Y-13217674D01*
X13031729Y-13217674D02*
X13079348Y-13217674D01*
X13079348Y-13217674D02*
X13098396Y-13227198D01*
X13098396Y-13227198D02*
X13107920Y-13236722D01*
X13107920Y-13236722D02*
X13117444Y-13255769D01*
X13117444Y-13255769D02*
X13117444Y-13303388D01*
X13117444Y-13303388D02*
X13107920Y-13322436D01*
X13107920Y-13322436D02*
X13098396Y-13331960D01*
X13098396Y-13331960D02*
X13079348Y-13341484D01*
X13079348Y-13341484D02*
X13031729Y-13341484D01*
X13031729Y-13341484D02*
X13012682Y-13331960D01*
X13012682Y-13331960D02*
X13003158Y-13322436D01*
X13193634Y-13141484D02*
X13193634Y-13179579D01*
X13269825Y-13141484D02*
X13269825Y-13179579D01*
X13565063Y-13417674D02*
X13555539Y-13408150D01*
X13555539Y-13408150D02*
X13536491Y-13379579D01*
X13536491Y-13379579D02*
X13526968Y-13360531D01*
X13526968Y-13360531D02*
X13517444Y-13331960D01*
X13517444Y-13331960D02*
X13507920Y-13284341D01*
X13507920Y-13284341D02*
X13507920Y-13246246D01*
X13507920Y-13246246D02*
X13517444Y-13198627D01*
X13517444Y-13198627D02*
X13526968Y-13170055D01*
X13526968Y-13170055D02*
X13536491Y-13151008D01*
X13536491Y-13151008D02*
X13555539Y-13122436D01*
X13555539Y-13122436D02*
X13565063Y-13112912D01*
X13669825Y-13227198D02*
X13650777Y-13217674D01*
X13650777Y-13217674D02*
X13641253Y-13208150D01*
X13641253Y-13208150D02*
X13631729Y-13189103D01*
X13631729Y-13189103D02*
X13631729Y-13179579D01*
X13631729Y-13179579D02*
X13641253Y-13160531D01*
X13641253Y-13160531D02*
X13650777Y-13151008D01*
X13650777Y-13151008D02*
X13669825Y-13141484D01*
X13669825Y-13141484D02*
X13707920Y-13141484D01*
X13707920Y-13141484D02*
X13726968Y-13151008D01*
X13726968Y-13151008D02*
X13736491Y-13160531D01*
X13736491Y-13160531D02*
X13746015Y-13179579D01*
X13746015Y-13179579D02*
X13746015Y-13189103D01*
X13746015Y-13189103D02*
X13736491Y-13208150D01*
X13736491Y-13208150D02*
X13726968Y-13217674D01*
X13726968Y-13217674D02*
X13707920Y-13227198D01*
X13707920Y-13227198D02*
X13669825Y-13227198D01*
X13669825Y-13227198D02*
X13650777Y-13236722D01*
X13650777Y-13236722D02*
X13641253Y-13246246D01*
X13641253Y-13246246D02*
X13631729Y-13265293D01*
X13631729Y-13265293D02*
X13631729Y-13303388D01*
X13631729Y-13303388D02*
X13641253Y-13322436D01*
X13641253Y-13322436D02*
X13650777Y-13331960D01*
X13650777Y-13331960D02*
X13669825Y-13341484D01*
X13669825Y-13341484D02*
X13707920Y-13341484D01*
X13707920Y-13341484D02*
X13726968Y-13331960D01*
X13726968Y-13331960D02*
X13736491Y-13322436D01*
X13736491Y-13322436D02*
X13746015Y-13303388D01*
X13746015Y-13303388D02*
X13746015Y-13265293D01*
X13746015Y-13265293D02*
X13736491Y-13246246D01*
X13736491Y-13246246D02*
X13726968Y-13236722D01*
X13726968Y-13236722D02*
X13707920Y-13227198D01*
X13984110Y-13341484D02*
X13984110Y-13141484D01*
X14069825Y-13341484D02*
X14069825Y-13236722D01*
X14069825Y-13236722D02*
X14060301Y-13217674D01*
X14060301Y-13217674D02*
X14041253Y-13208150D01*
X14041253Y-13208150D02*
X14012682Y-13208150D01*
X14012682Y-13208150D02*
X13993634Y-13217674D01*
X13993634Y-13217674D02*
X13984110Y-13227198D01*
X14193634Y-13341484D02*
X14174587Y-13331960D01*
X14174587Y-13331960D02*
X14165063Y-13322436D01*
X14165063Y-13322436D02*
X14155539Y-13303388D01*
X14155539Y-13303388D02*
X14155539Y-13246246D01*
X14155539Y-13246246D02*
X14165063Y-13227198D01*
X14165063Y-13227198D02*
X14174587Y-13217674D01*
X14174587Y-13217674D02*
X14193634Y-13208150D01*
X14193634Y-13208150D02*
X14222206Y-13208150D01*
X14222206Y-13208150D02*
X14241253Y-13217674D01*
X14241253Y-13217674D02*
X14250777Y-13227198D01*
X14250777Y-13227198D02*
X14260301Y-13246246D01*
X14260301Y-13246246D02*
X14260301Y-13303388D01*
X14260301Y-13303388D02*
X14250777Y-13322436D01*
X14250777Y-13322436D02*
X14241253Y-13331960D01*
X14241253Y-13331960D02*
X14222206Y-13341484D01*
X14222206Y-13341484D02*
X14193634Y-13341484D01*
X14374587Y-13341484D02*
X14355539Y-13331960D01*
X14355539Y-13331960D02*
X14346015Y-13312912D01*
X14346015Y-13312912D02*
X14346015Y-13141484D01*
X14526968Y-13331960D02*
X14507920Y-13341484D01*
X14507920Y-13341484D02*
X14469825Y-13341484D01*
X14469825Y-13341484D02*
X14450777Y-13331960D01*
X14450777Y-13331960D02*
X14441253Y-13312912D01*
X14441253Y-13312912D02*
X14441253Y-13236722D01*
X14441253Y-13236722D02*
X14450777Y-13217674D01*
X14450777Y-13217674D02*
X14469825Y-13208150D01*
X14469825Y-13208150D02*
X14507920Y-13208150D01*
X14507920Y-13208150D02*
X14526968Y-13217674D01*
X14526968Y-13217674D02*
X14536491Y-13236722D01*
X14536491Y-13236722D02*
X14536491Y-13255769D01*
X14536491Y-13255769D02*
X14441253Y-13274817D01*
X14612682Y-13331960D02*
X14631730Y-13341484D01*
X14631730Y-13341484D02*
X14669825Y-13341484D01*
X14669825Y-13341484D02*
X14688872Y-13331960D01*
X14688872Y-13331960D02*
X14698396Y-13312912D01*
X14698396Y-13312912D02*
X14698396Y-13303388D01*
X14698396Y-13303388D02*
X14688872Y-13284341D01*
X14688872Y-13284341D02*
X14669825Y-13274817D01*
X14669825Y-13274817D02*
X14641253Y-13274817D01*
X14641253Y-13274817D02*
X14622206Y-13265293D01*
X14622206Y-13265293D02*
X14612682Y-13246246D01*
X14612682Y-13246246D02*
X14612682Y-13236722D01*
X14612682Y-13236722D02*
X14622206Y-13217674D01*
X14622206Y-13217674D02*
X14641253Y-13208150D01*
X14641253Y-13208150D02*
X14669825Y-13208150D01*
X14669825Y-13208150D02*
X14688872Y-13217674D01*
X14765063Y-13417674D02*
X14774587Y-13408150D01*
X14774587Y-13408150D02*
X14793634Y-13379579D01*
X14793634Y-13379579D02*
X14803158Y-13360531D01*
X14803158Y-13360531D02*
X14812682Y-13331960D01*
X14812682Y-13331960D02*
X14822206Y-13284341D01*
X14822206Y-13284341D02*
X14822206Y-13246246D01*
X14822206Y-13246246D02*
X14812682Y-13198627D01*
X14812682Y-13198627D02*
X14803158Y-13170055D01*
X14803158Y-13170055D02*
X14793634Y-13151008D01*
X14793634Y-13151008D02*
X14774587Y-13122436D01*
X14774587Y-13122436D02*
X14765063Y-13112912D01*
D11*
X9990000Y-13514000D02*
G75*
G03*
X9890000Y-13514000I-50000J0D01*
G01*
X9890000Y-13514000D02*
G75*
G03*
X9990000Y-13514000I50000J0D01*
G01*
D10*
X10355539Y-13605484D02*
X10241253Y-13605484D01*
X10298396Y-13605484D02*
X10298396Y-13405484D01*
X10298396Y-13405484D02*
X10279348Y-13434055D01*
X10279348Y-13434055D02*
X10260301Y-13453103D01*
X10260301Y-13453103D02*
X10241253Y-13462627D01*
X10441253Y-13586436D02*
X10450777Y-13595960D01*
X10450777Y-13595960D02*
X10441253Y-13605484D01*
X10441253Y-13605484D02*
X10431729Y-13595960D01*
X10431729Y-13595960D02*
X10441253Y-13586436D01*
X10441253Y-13586436D02*
X10441253Y-13605484D01*
X10574586Y-13405484D02*
X10593634Y-13405484D01*
X10593634Y-13405484D02*
X10612682Y-13415008D01*
X10612682Y-13415008D02*
X10622205Y-13424531D01*
X10622205Y-13424531D02*
X10631729Y-13443579D01*
X10631729Y-13443579D02*
X10641253Y-13481674D01*
X10641253Y-13481674D02*
X10641253Y-13529293D01*
X10641253Y-13529293D02*
X10631729Y-13567388D01*
X10631729Y-13567388D02*
X10622205Y-13586436D01*
X10622205Y-13586436D02*
X10612682Y-13595960D01*
X10612682Y-13595960D02*
X10593634Y-13605484D01*
X10593634Y-13605484D02*
X10574586Y-13605484D01*
X10574586Y-13605484D02*
X10555539Y-13595960D01*
X10555539Y-13595960D02*
X10546015Y-13586436D01*
X10546015Y-13586436D02*
X10536491Y-13567388D01*
X10536491Y-13567388D02*
X10526967Y-13529293D01*
X10526967Y-13529293D02*
X10526967Y-13481674D01*
X10526967Y-13481674D02*
X10536491Y-13443579D01*
X10536491Y-13443579D02*
X10546015Y-13424531D01*
X10546015Y-13424531D02*
X10555539Y-13415008D01*
X10555539Y-13415008D02*
X10574586Y-13405484D01*
X10765063Y-13405484D02*
X10784110Y-13405484D01*
X10784110Y-13405484D02*
X10803158Y-13415008D01*
X10803158Y-13415008D02*
X10812682Y-13424531D01*
X10812682Y-13424531D02*
X10822205Y-13443579D01*
X10822205Y-13443579D02*
X10831729Y-13481674D01*
X10831729Y-13481674D02*
X10831729Y-13529293D01*
X10831729Y-13529293D02*
X10822205Y-13567388D01*
X10822205Y-13567388D02*
X10812682Y-13586436D01*
X10812682Y-13586436D02*
X10803158Y-13595960D01*
X10803158Y-13595960D02*
X10784110Y-13605484D01*
X10784110Y-13605484D02*
X10765063Y-13605484D01*
X10765063Y-13605484D02*
X10746015Y-13595960D01*
X10746015Y-13595960D02*
X10736491Y-13586436D01*
X10736491Y-13586436D02*
X10726967Y-13567388D01*
X10726967Y-13567388D02*
X10717444Y-13529293D01*
X10717444Y-13529293D02*
X10717444Y-13481674D01*
X10717444Y-13481674D02*
X10726967Y-13443579D01*
X10726967Y-13443579D02*
X10736491Y-13424531D01*
X10736491Y-13424531D02*
X10746015Y-13415008D01*
X10746015Y-13415008D02*
X10765063Y-13405484D01*
X10955539Y-13405484D02*
X10974586Y-13405484D01*
X10974586Y-13405484D02*
X10993634Y-13415008D01*
X10993634Y-13415008D02*
X11003158Y-13424531D01*
X11003158Y-13424531D02*
X11012682Y-13443579D01*
X11012682Y-13443579D02*
X11022205Y-13481674D01*
X11022205Y-13481674D02*
X11022205Y-13529293D01*
X11022205Y-13529293D02*
X11012682Y-13567388D01*
X11012682Y-13567388D02*
X11003158Y-13586436D01*
X11003158Y-13586436D02*
X10993634Y-13595960D01*
X10993634Y-13595960D02*
X10974586Y-13605484D01*
X10974586Y-13605484D02*
X10955539Y-13605484D01*
X10955539Y-13605484D02*
X10936491Y-13595960D01*
X10936491Y-13595960D02*
X10926967Y-13586436D01*
X10926967Y-13586436D02*
X10917444Y-13567388D01*
X10917444Y-13567388D02*
X10907920Y-13529293D01*
X10907920Y-13529293D02*
X10907920Y-13481674D01*
X10907920Y-13481674D02*
X10917444Y-13443579D01*
X10917444Y-13443579D02*
X10926967Y-13424531D01*
X10926967Y-13424531D02*
X10936491Y-13415008D01*
X10936491Y-13415008D02*
X10955539Y-13405484D01*
X11107920Y-13605484D02*
X11107920Y-13472150D01*
X11107920Y-13491198D02*
X11117444Y-13481674D01*
X11117444Y-13481674D02*
X11136491Y-13472150D01*
X11136491Y-13472150D02*
X11165063Y-13472150D01*
X11165063Y-13472150D02*
X11184110Y-13481674D01*
X11184110Y-13481674D02*
X11193634Y-13500722D01*
X11193634Y-13500722D02*
X11193634Y-13605484D01*
X11193634Y-13500722D02*
X11203158Y-13481674D01*
X11203158Y-13481674D02*
X11222205Y-13472150D01*
X11222205Y-13472150D02*
X11250777Y-13472150D01*
X11250777Y-13472150D02*
X11269824Y-13481674D01*
X11269824Y-13481674D02*
X11279348Y-13500722D01*
X11279348Y-13500722D02*
X11279348Y-13605484D01*
X11374586Y-13605484D02*
X11374586Y-13472150D01*
X11374586Y-13491198D02*
X11384110Y-13481674D01*
X11384110Y-13481674D02*
X11403158Y-13472150D01*
X11403158Y-13472150D02*
X11431729Y-13472150D01*
X11431729Y-13472150D02*
X11450777Y-13481674D01*
X11450777Y-13481674D02*
X11460301Y-13500722D01*
X11460301Y-13500722D02*
X11460301Y-13605484D01*
X11460301Y-13500722D02*
X11469824Y-13481674D01*
X11469824Y-13481674D02*
X11488872Y-13472150D01*
X11488872Y-13472150D02*
X11517443Y-13472150D01*
X11517443Y-13472150D02*
X11536491Y-13481674D01*
X11536491Y-13481674D02*
X11546015Y-13500722D01*
X11546015Y-13500722D02*
X11546015Y-13605484D01*
X11936491Y-13395960D02*
X11765063Y-13653103D01*
X12193634Y-13405484D02*
X12212682Y-13405484D01*
X12212682Y-13405484D02*
X12231729Y-13415008D01*
X12231729Y-13415008D02*
X12241253Y-13424531D01*
X12241253Y-13424531D02*
X12250777Y-13443579D01*
X12250777Y-13443579D02*
X12260301Y-13481674D01*
X12260301Y-13481674D02*
X12260301Y-13529293D01*
X12260301Y-13529293D02*
X12250777Y-13567388D01*
X12250777Y-13567388D02*
X12241253Y-13586436D01*
X12241253Y-13586436D02*
X12231729Y-13595960D01*
X12231729Y-13595960D02*
X12212682Y-13605484D01*
X12212682Y-13605484D02*
X12193634Y-13605484D01*
X12193634Y-13605484D02*
X12174586Y-13595960D01*
X12174586Y-13595960D02*
X12165063Y-13586436D01*
X12165063Y-13586436D02*
X12155539Y-13567388D01*
X12155539Y-13567388D02*
X12146015Y-13529293D01*
X12146015Y-13529293D02*
X12146015Y-13481674D01*
X12146015Y-13481674D02*
X12155539Y-13443579D01*
X12155539Y-13443579D02*
X12165063Y-13424531D01*
X12165063Y-13424531D02*
X12174586Y-13415008D01*
X12174586Y-13415008D02*
X12193634Y-13405484D01*
X12346015Y-13586436D02*
X12355539Y-13595960D01*
X12355539Y-13595960D02*
X12346015Y-13605484D01*
X12346015Y-13605484D02*
X12336491Y-13595960D01*
X12336491Y-13595960D02*
X12346015Y-13586436D01*
X12346015Y-13586436D02*
X12346015Y-13605484D01*
X12479348Y-13405484D02*
X12498396Y-13405484D01*
X12498396Y-13405484D02*
X12517444Y-13415008D01*
X12517444Y-13415008D02*
X12526967Y-13424531D01*
X12526967Y-13424531D02*
X12536491Y-13443579D01*
X12536491Y-13443579D02*
X12546015Y-13481674D01*
X12546015Y-13481674D02*
X12546015Y-13529293D01*
X12546015Y-13529293D02*
X12536491Y-13567388D01*
X12536491Y-13567388D02*
X12526967Y-13586436D01*
X12526967Y-13586436D02*
X12517444Y-13595960D01*
X12517444Y-13595960D02*
X12498396Y-13605484D01*
X12498396Y-13605484D02*
X12479348Y-13605484D01*
X12479348Y-13605484D02*
X12460301Y-13595960D01*
X12460301Y-13595960D02*
X12450777Y-13586436D01*
X12450777Y-13586436D02*
X12441253Y-13567388D01*
X12441253Y-13567388D02*
X12431729Y-13529293D01*
X12431729Y-13529293D02*
X12431729Y-13481674D01*
X12431729Y-13481674D02*
X12441253Y-13443579D01*
X12441253Y-13443579D02*
X12450777Y-13424531D01*
X12450777Y-13424531D02*
X12460301Y-13415008D01*
X12460301Y-13415008D02*
X12479348Y-13405484D01*
X12612682Y-13405484D02*
X12736491Y-13405484D01*
X12736491Y-13405484D02*
X12669825Y-13481674D01*
X12669825Y-13481674D02*
X12698396Y-13481674D01*
X12698396Y-13481674D02*
X12717444Y-13491198D01*
X12717444Y-13491198D02*
X12726967Y-13500722D01*
X12726967Y-13500722D02*
X12736491Y-13519769D01*
X12736491Y-13519769D02*
X12736491Y-13567388D01*
X12736491Y-13567388D02*
X12726967Y-13586436D01*
X12726967Y-13586436D02*
X12717444Y-13595960D01*
X12717444Y-13595960D02*
X12698396Y-13605484D01*
X12698396Y-13605484D02*
X12641253Y-13605484D01*
X12641253Y-13605484D02*
X12622206Y-13595960D01*
X12622206Y-13595960D02*
X12612682Y-13586436D01*
X12831729Y-13605484D02*
X12869825Y-13605484D01*
X12869825Y-13605484D02*
X12888872Y-13595960D01*
X12888872Y-13595960D02*
X12898396Y-13586436D01*
X12898396Y-13586436D02*
X12917444Y-13557865D01*
X12917444Y-13557865D02*
X12926967Y-13519769D01*
X12926967Y-13519769D02*
X12926967Y-13443579D01*
X12926967Y-13443579D02*
X12917444Y-13424531D01*
X12917444Y-13424531D02*
X12907920Y-13415008D01*
X12907920Y-13415008D02*
X12888872Y-13405484D01*
X12888872Y-13405484D02*
X12850777Y-13405484D01*
X12850777Y-13405484D02*
X12831729Y-13415008D01*
X12831729Y-13415008D02*
X12822206Y-13424531D01*
X12822206Y-13424531D02*
X12812682Y-13443579D01*
X12812682Y-13443579D02*
X12812682Y-13491198D01*
X12812682Y-13491198D02*
X12822206Y-13510246D01*
X12822206Y-13510246D02*
X12831729Y-13519769D01*
X12831729Y-13519769D02*
X12850777Y-13529293D01*
X12850777Y-13529293D02*
X12888872Y-13529293D01*
X12888872Y-13529293D02*
X12907920Y-13519769D01*
X12907920Y-13519769D02*
X12917444Y-13510246D01*
X12917444Y-13510246D02*
X12926967Y-13491198D01*
X13098396Y-13472150D02*
X13098396Y-13605484D01*
X13050777Y-13395960D02*
X13003158Y-13538817D01*
X13003158Y-13538817D02*
X13126967Y-13538817D01*
X13193634Y-13405484D02*
X13193634Y-13443579D01*
X13269825Y-13405484D02*
X13269825Y-13443579D01*
X13565063Y-13681674D02*
X13555539Y-13672150D01*
X13555539Y-13672150D02*
X13536491Y-13643579D01*
X13536491Y-13643579D02*
X13526968Y-13624531D01*
X13526968Y-13624531D02*
X13517444Y-13595960D01*
X13517444Y-13595960D02*
X13507920Y-13548341D01*
X13507920Y-13548341D02*
X13507920Y-13510246D01*
X13507920Y-13510246D02*
X13517444Y-13462627D01*
X13517444Y-13462627D02*
X13526968Y-13434055D01*
X13526968Y-13434055D02*
X13536491Y-13415008D01*
X13536491Y-13415008D02*
X13555539Y-13386436D01*
X13555539Y-13386436D02*
X13565063Y-13376912D01*
X13746015Y-13605484D02*
X13631729Y-13605484D01*
X13688872Y-13605484D02*
X13688872Y-13405484D01*
X13688872Y-13405484D02*
X13669825Y-13434055D01*
X13669825Y-13434055D02*
X13650777Y-13453103D01*
X13650777Y-13453103D02*
X13631729Y-13462627D01*
X13936491Y-13605484D02*
X13822206Y-13605484D01*
X13879348Y-13605484D02*
X13879348Y-13405484D01*
X13879348Y-13405484D02*
X13860301Y-13434055D01*
X13860301Y-13434055D02*
X13841253Y-13453103D01*
X13841253Y-13453103D02*
X13822206Y-13462627D01*
X14174587Y-13605484D02*
X14174587Y-13405484D01*
X14260301Y-13605484D02*
X14260301Y-13500722D01*
X14260301Y-13500722D02*
X14250777Y-13481674D01*
X14250777Y-13481674D02*
X14231730Y-13472150D01*
X14231730Y-13472150D02*
X14203158Y-13472150D01*
X14203158Y-13472150D02*
X14184110Y-13481674D01*
X14184110Y-13481674D02*
X14174587Y-13491198D01*
X14384110Y-13605484D02*
X14365063Y-13595960D01*
X14365063Y-13595960D02*
X14355539Y-13586436D01*
X14355539Y-13586436D02*
X14346015Y-13567388D01*
X14346015Y-13567388D02*
X14346015Y-13510246D01*
X14346015Y-13510246D02*
X14355539Y-13491198D01*
X14355539Y-13491198D02*
X14365063Y-13481674D01*
X14365063Y-13481674D02*
X14384110Y-13472150D01*
X14384110Y-13472150D02*
X14412682Y-13472150D01*
X14412682Y-13472150D02*
X14431730Y-13481674D01*
X14431730Y-13481674D02*
X14441253Y-13491198D01*
X14441253Y-13491198D02*
X14450777Y-13510246D01*
X14450777Y-13510246D02*
X14450777Y-13567388D01*
X14450777Y-13567388D02*
X14441253Y-13586436D01*
X14441253Y-13586436D02*
X14431730Y-13595960D01*
X14431730Y-13595960D02*
X14412682Y-13605484D01*
X14412682Y-13605484D02*
X14384110Y-13605484D01*
X14565063Y-13605484D02*
X14546015Y-13595960D01*
X14546015Y-13595960D02*
X14536491Y-13576912D01*
X14536491Y-13576912D02*
X14536491Y-13405484D01*
X14717444Y-13595960D02*
X14698396Y-13605484D01*
X14698396Y-13605484D02*
X14660301Y-13605484D01*
X14660301Y-13605484D02*
X14641253Y-13595960D01*
X14641253Y-13595960D02*
X14631730Y-13576912D01*
X14631730Y-13576912D02*
X14631730Y-13500722D01*
X14631730Y-13500722D02*
X14641253Y-13481674D01*
X14641253Y-13481674D02*
X14660301Y-13472150D01*
X14660301Y-13472150D02*
X14698396Y-13472150D01*
X14698396Y-13472150D02*
X14717444Y-13481674D01*
X14717444Y-13481674D02*
X14726968Y-13500722D01*
X14726968Y-13500722D02*
X14726968Y-13519769D01*
X14726968Y-13519769D02*
X14631730Y-13538817D01*
X14803158Y-13595960D02*
X14822206Y-13605484D01*
X14822206Y-13605484D02*
X14860301Y-13605484D01*
X14860301Y-13605484D02*
X14879349Y-13595960D01*
X14879349Y-13595960D02*
X14888872Y-13576912D01*
X14888872Y-13576912D02*
X14888872Y-13567388D01*
X14888872Y-13567388D02*
X14879349Y-13548341D01*
X14879349Y-13548341D02*
X14860301Y-13538817D01*
X14860301Y-13538817D02*
X14831730Y-13538817D01*
X14831730Y-13538817D02*
X14812682Y-13529293D01*
X14812682Y-13529293D02*
X14803158Y-13510246D01*
X14803158Y-13510246D02*
X14803158Y-13500722D01*
X14803158Y-13500722D02*
X14812682Y-13481674D01*
X14812682Y-13481674D02*
X14831730Y-13472150D01*
X14831730Y-13472150D02*
X14860301Y-13472150D01*
X14860301Y-13472150D02*
X14879349Y-13481674D01*
X14955539Y-13681674D02*
X14965063Y-13672150D01*
X14965063Y-13672150D02*
X14984111Y-13643579D01*
X14984111Y-13643579D02*
X14993634Y-13624531D01*
X14993634Y-13624531D02*
X15003158Y-13595960D01*
X15003158Y-13595960D02*
X15012682Y-13548341D01*
X15012682Y-13548341D02*
X15012682Y-13510246D01*
X15012682Y-13510246D02*
X15003158Y-13462627D01*
X15003158Y-13462627D02*
X14993634Y-13434055D01*
X14993634Y-13434055D02*
X14984111Y-13415008D01*
X14984111Y-13415008D02*
X14965063Y-13386436D01*
X14965063Y-13386436D02*
X14955539Y-13376912D01*
M02*
